<?xml version="1.0" encoding="UTF-8" standalone="no"?>
<!-- Created with Inkscape (http://www.inkscape.org/) -->

<svg
   width="20.299999mm"
   height="15.4mm"
   viewBox="0 0 20.299999 15.4"
   version="1.1"
   id="svg1"
   xml:space="preserve"
   inkscape:version="1.3 (0e150ed6c4, 2023-07-21)"
   sodipodi:docname="MAX30102.svg"
   xmlns:inkscape="http://www.inkscape.org/namespaces/inkscape"
   xmlns:sodipodi="http://sodipodi.sourceforge.net/DTD/sodipodi-0.dtd"
   xmlns="http://www.w3.org/2000/svg"
   xmlns:svg="http://www.w3.org/2000/svg"><sodipodi:namedview
     id="namedview1"
     pagecolor="#ffffff"
     bordercolor="#000000"
     borderopacity="0.25"
     inkscape:showpageshadow="2"
     inkscape:pageopacity="0.0"
     inkscape:pagecheckerboard="0"
     inkscape:deskcolor="#d1d1d1"
     inkscape:document-units="mm"
     inkscape:zoom="13.16876"
     inkscape:cx="45.904093"
     inkscape:cy="19.401978"
     inkscape:window-width="1920"
     inkscape:window-height="991"
     inkscape:window-x="-9"
     inkscape:window-y="-9"
     inkscape:window-maximized="1"
     inkscape:current-layer="g10" /><defs
     id="defs1" /><g
     inkscape:label="Layer 1"
     inkscape:groupmode="layer"
     id="layer1" /><g
     inkscape:groupmode="layer"
     id="layer6"
     inkscape:label="Breadboard"><g
       inkscape:groupmode="layer"
       id="layer7"
       inkscape:label="icon"><g
         id="g10"><rect
           style="fill:#474747;stroke:#000000;stroke-width:0.02;fill-opacity:1"
           id="rect1"
           width="20.088825"
           height="15.281856"
           x="0.14349158"
           y="0.071745805" /><rect
           style="fill:#000000;fill-opacity:1;stroke:#808080;stroke-width:0.02"
           id="rect10"
           width="3.3193345"
           height="5.6934276"
           x="8.7929382"
           y="4.7701693" /><text
           xml:space="preserve"
           style="font-style:normal;font-variant:normal;font-weight:normal;font-stretch:normal;font-size:1.05833px;font-family:'OCR A Extended';-inkscape-font-specification:'OCR A Extended, Normal';font-variant-ligatures:normal;font-variant-caps:normal;font-variant-numeric:normal;font-variant-east-asian:normal;fill:#f7f7f7;fill-opacity:1;stroke:#808080;stroke-width:0.02"
           x="5.6919794"
           y="11.439937"
           id="text12"><tspan
             sodipodi:role="line"
             id="tspan12"
             style="font-style:normal;font-variant:normal;font-weight:normal;font-stretch:normal;font-size:1.05833px;font-family:'OCR A Extended';-inkscape-font-specification:'OCR A Extended, Normal';font-variant-ligatures:normal;font-variant-caps:normal;font-variant-numeric:normal;font-variant-east-asian:normal;fill:#f7f7f7;fill-opacity:1;stroke-width:0.02"
             x="5.6919794"
             y="11.439937">GND</tspan></text><text
           xml:space="preserve"
           style="font-style:normal;font-variant:normal;font-weight:normal;font-stretch:normal;font-size:1.05833px;font-family:'OCR A Extended';-inkscape-font-specification:'OCR A Extended, Normal';font-variant-ligatures:normal;font-variant-caps:normal;font-variant-numeric:normal;font-variant-east-asian:normal;fill:#f7f7f7;fill-opacity:1;stroke:#808080;stroke-width:0.02"
           x="8.2044611"
           y="11.398062"
           id="text13"><tspan
             sodipodi:role="line"
             id="tspan13"
             style="font-style:normal;font-variant:normal;font-weight:normal;font-stretch:normal;font-size:1.05833px;font-family:'OCR A Extended';-inkscape-font-specification:'OCR A Extended, Normal';font-variant-ligatures:normal;font-variant-caps:normal;font-variant-numeric:normal;font-variant-east-asian:normal;fill:#f7f7f7;fill-opacity:1;stroke-width:0.02"
             x="8.2044611"
             y="11.398062">SCL</tspan></text><text
           xml:space="preserve"
           style="font-style:normal;font-variant:normal;font-weight:normal;font-stretch:normal;font-size:1.05833px;font-family:'OCR A Extended';-inkscape-font-specification:'OCR A Extended, Normal';font-variant-ligatures:normal;font-variant-caps:normal;font-variant-numeric:normal;font-variant-east-asian:normal;fill:#f7f7f7;fill-opacity:1;stroke:#808080;stroke-width:0.02"
           x="10.863503"
           y="11.439937"
           id="text14"><tspan
             sodipodi:role="line"
             id="tspan14"
             style="font-style:normal;font-variant:normal;font-weight:normal;font-stretch:normal;font-size:1.05833px;font-family:'OCR A Extended';-inkscape-font-specification:'OCR A Extended, Normal';font-variant-ligatures:normal;font-variant-caps:normal;font-variant-numeric:normal;font-variant-east-asian:normal;fill:#f7f7f7;fill-opacity:1;stroke-width:0.02"
             x="10.863503"
             y="11.439937">SDA</tspan></text><text
           xml:space="preserve"
           style="font-style:normal;font-variant:normal;font-weight:normal;font-stretch:normal;font-size:1.05833px;font-family:'OCR A Extended';-inkscape-font-specification:'OCR A Extended, Normal';font-variant-ligatures:normal;font-variant-caps:normal;font-variant-numeric:normal;font-variant-east-asian:normal;fill:#f7f7f7;fill-opacity:1;stroke:#808080;stroke-width:0.02"
           x="13.375985"
           y="11.398062"
           id="text15"><tspan
             sodipodi:role="line"
             id="tspan15"
             style="font-style:normal;font-variant:normal;font-weight:normal;font-stretch:normal;font-size:1.05833px;font-family:'OCR A Extended';-inkscape-font-specification:'OCR A Extended, Normal';font-variant-ligatures:normal;font-variant-caps:normal;font-variant-numeric:normal;font-variant-east-asian:normal;fill:#f7f7f7;fill-opacity:1;stroke-width:0.02"
             x="13.375985"
             y="11.398062">VIN</tspan></text><text
           xml:space="preserve"
           style="font-style:normal;font-variant:normal;font-weight:normal;font-stretch:normal;font-size:1.05833px;font-family:'OCR A Extended';-inkscape-font-specification:'OCR A Extended, Normal';font-variant-ligatures:normal;font-variant-caps:normal;font-variant-numeric:normal;font-variant-east-asian:normal;fill:#f7f7f7;fill-opacity:1;stroke:#808080;stroke-width:0.02"
           x="5.6919794"
           y="4.719049"
           id="text16"><tspan
             sodipodi:role="line"
             id="tspan16"
             style="font-style:normal;font-variant:normal;font-weight:normal;font-stretch:normal;font-size:1.05833px;font-family:'OCR A Extended';-inkscape-font-specification:'OCR A Extended, Normal';font-variant-ligatures:normal;font-variant-caps:normal;font-variant-numeric:normal;font-variant-east-asian:normal;fill:#f7f7f7;fill-opacity:1;stroke-width:0.02"
             x="5.6919794"
             y="4.719049">INT</tspan></text><text
           xml:space="preserve"
           style="font-style:normal;font-variant:normal;font-weight:normal;font-stretch:normal;font-size:1.05833px;font-family:'OCR A Extended';-inkscape-font-specification:'OCR A Extended, Normal';font-variant-ligatures:normal;font-variant-caps:normal;font-variant-numeric:normal;font-variant-east-asian:normal;fill:#f7f7f7;fill-opacity:1;stroke:#808080;stroke-width:0.02"
           x="8.2044611"
           y="4.6771741"
           id="text17"><tspan
             sodipodi:role="line"
             id="tspan17"
             style="font-style:normal;font-variant:normal;font-weight:normal;font-stretch:normal;font-size:1.05833px;font-family:'OCR A Extended';-inkscape-font-specification:'OCR A Extended, Normal';font-variant-ligatures:normal;font-variant-caps:normal;font-variant-numeric:normal;font-variant-east-asian:normal;fill:#f7f7f7;fill-opacity:1;stroke-width:0.02"
             x="8.2044611"
             y="4.6771741">IRD</tspan></text><text
           xml:space="preserve"
           style="font-style:normal;font-variant:normal;font-weight:normal;font-stretch:normal;font-size:1.05833px;font-family:'OCR A Extended';-inkscape-font-specification:'OCR A Extended, Normal';font-variant-ligatures:normal;font-variant-caps:normal;font-variant-numeric:normal;font-variant-east-asian:normal;fill:#f7f7f7;fill-opacity:1;stroke:#808080;stroke-width:0.02"
           x="11.104605"
           y="4.719049"
           id="text18"><tspan
             sodipodi:role="line"
             id="tspan18"
             style="font-style:normal;font-variant:normal;font-weight:normal;font-stretch:normal;font-size:1.05833px;font-family:'OCR A Extended';-inkscape-font-specification:'OCR A Extended, Normal';font-variant-ligatures:normal;font-variant-caps:normal;font-variant-numeric:normal;font-variant-east-asian:normal;fill:#f7f7f7;fill-opacity:1;stroke-width:0.02"
             x="11.104605"
             y="4.719049">RD</tspan></text><text
           xml:space="preserve"
           style="font-style:normal;font-variant:normal;font-weight:normal;font-stretch:normal;font-size:1.05833px;font-family:'OCR A Extended';-inkscape-font-specification:'OCR A Extended, Normal';font-variant-ligatures:normal;font-variant-caps:normal;font-variant-numeric:normal;font-variant-east-asian:normal;fill:#f7f7f7;fill-opacity:1;stroke:#808080;stroke-width:0.02"
           x="13.375985"
           y="4.6771741"
           id="text19"><tspan
             sodipodi:role="line"
             id="tspan19"
             style="font-style:normal;font-variant:normal;font-weight:normal;font-stretch:normal;font-size:1.05833px;font-family:'OCR A Extended';-inkscape-font-specification:'OCR A Extended, Normal';font-variant-ligatures:normal;font-variant-caps:normal;font-variant-numeric:normal;font-variant-east-asian:normal;fill:#f7f7f7;fill-opacity:1;stroke-width:0.02"
             x="13.375985"
             y="4.6771741">GND</tspan></text></g><g
         inkscape:groupmode="layer"
         id="layer8"
         inkscape:label="copper1"><path
           d="m 6.6894454,11.725896 a 1.204897,1.204897 0 0 0 -0.1714009,0.01229 1.204897,1.204897 0 0 0 -0.1681464,0.03652 1.204897,1.204897 0 0 0 -0.1609143,0.06002 1.204897,1.204897 0 0 0 -0.1507894,0.08245 1.204897,1.204897 0 0 0 -0.1377715,0.103057 1.204897,1.204897 0 0 0 -0.1214994,0.1215 1.204897,1.204897 0 0 0 -0.1030575,0.137409 1.204897,1.204897 0 0 0 -0.082446,0.151152 1.204897,1.204897 0 0 0 -0.060026,0.160914 1.204897,1.204897 0 0 0 -0.036522,0.168146 1.204897,1.204897 0 0 0 -0.012295,0.171401 1.204897,1.204897 0 0 0 0.012295,0.171401 1.204897,1.204897 0 0 0 0.036522,0.168146 1.204897,1.204897 0 0 0 0.060026,0.160914 1.204897,1.204897 0 0 0 0.082446,0.15079 1.204897,1.204897 0 0 0 0.1030575,0.137771 1.204897,1.204897 0 0 0 0.1214994,0.1215 1.204897,1.204897 0 0 0 0.1377715,0.103058 1.204897,1.204897 0 0 0 0.1507894,0.08244 1.204897,1.204897 0 0 0 0.1609143,0.06002 1.204897,1.204897 0 0 0 0.1681464,0.03652 1.204897,1.204897 0 0 0 0.1714009,0.01229 1.204897,1.204897 0 0 0 0.1714009,-0.01229 1.204897,1.204897 0 0 0 0.1681464,-0.03652 1.204897,1.204897 0 0 0 0.1609144,-0.06002 1.204897,1.204897 0 0 0 0.1511509,-0.08244 1.204897,1.204897 0 0 0 0.13741,-0.103058 1.204897,1.204897 0 0 0 0.1214994,-0.1215 1.204897,1.204897 0 0 0 0.1030575,-0.137771 1.204897,1.204897 0 0 0 0.082446,-0.15079 1.204897,1.204897 0 0 0 0.060027,-0.160914 1.204897,1.204897 0 0 0 0.036522,-0.168146 1.204897,1.204897 0 0 0 0.012295,-0.171401 1.204897,1.204897 0 0 0 -0.00145,-0.0593 1.204897,1.204897 0 0 0 -0.00434,-0.05894 1.204897,1.204897 0 0 0 -0.00723,-0.05858 1.204897,1.204897 0 0 0 -0.010125,-0.05822 1.204897,1.204897 0 0 0 -0.013018,-0.05785 1.204897,1.204897 0 0 0 -0.015549,-0.05677 1.204897,1.204897 0 0 0 -0.018804,-0.05641 1.204897,1.204897 0 0 0 -0.020973,-0.05496 1.204897,1.204897 0 0 0 -0.024227,-0.05424 1.204897,1.204897 0 0 0 -0.026397,-0.0528 1.204897,1.204897 0 0 0 -0.02929,-0.05135 1.204897,1.204897 0 0 0 -0.031459,-0.0499 1.204897,1.204897 0 0 0 -0.033991,-0.04846 1.204897,1.204897 0 0 0 -0.036522,-0.04664 1.204897,1.204897 0 0 0 -0.038692,-0.04484 1.204897,1.204897 0 0 0 -0.040861,-0.04267 1.204897,1.204897 0 0 0 -0.042669,-0.04086 1.204897,1.204897 0 0 0 -0.044839,-0.03869 1.204897,1.204897 0 0 0 -0.046647,-0.03652 1.204897,1.204897 0 0 0 -0.048455,-0.03399 1.204897,1.204897 0 0 0 -0.049901,-0.03146 1.204897,1.204897 0 0 0 -0.051348,-0.02929 1.204897,1.204897 0 0 0 -0.052795,-0.02639 1.204897,1.204897 0 0 0 -0.054241,-0.02423 1.204897,1.204897 0 0 0 -0.054964,-0.02097 1.204897,1.204897 0 0 0 -0.05641,-0.0188 1.204897,1.204897 0 0 0 -0.056772,-0.01555 1.204897,1.204897 0 0 0 -0.057857,-0.01302 1.204897,1.204897 0 0 0 -0.058218,-0.01012 1.204897,1.204897 0 0 0 -0.05858,-0.0072 1.204897,1.204897 0 0 0 -0.058942,-0.0043 1.204897,1.204897 0 0 0 -0.059303,-0.0015 z m 0,0.451283 a 0.75349421,0.75349421 0 0 1 0.04737,0.0015 0.75349421,0.75349421 0 0 1 0.047008,0.0047 0.75349421,0.75349421 0 0 1 0.047009,0.0072 0.75349421,0.75349421 0 0 1 0.045924,0.01049 0.75349421,0.75349421 0 0 1 0.045562,0.01301 0.75349421,0.75349421 0 0 1 0.044478,0.01591 0.75349421,0.75349421 0 0 1 0.043393,0.0188 0.75349421,0.75349421 0 0 1 0.042307,0.0217 0.75349421,0.75349421 0 0 1 0.040861,0.02387 0.75349421,0.75349421 0 0 1 0.039053,0.02676 0.75349421,0.75349421 0 0 1 0.037246,0.02893 0.75349421,0.75349421 0 0 1 0.035799,0.03146 0.75349421,0.75349421 0 0 1 0.033267,0.03327 0.75349421,0.75349421 0 0 1 0.031459,0.0358 0.75349421,0.75349421 0 0 1 0.028928,0.03725 0.75349421,0.75349421 0 0 1 0.026759,0.03905 0.75349421,0.75349421 0 0 1 0.023866,0.04086 0.75349421,0.75349421 0 0 1 0.021696,0.04231 0.75349421,0.75349421 0 0 1 0.018804,0.04339 0.75349421,0.75349421 0 0 1 0.015911,0.04448 0.75349421,0.75349421 0 0 1 0.013018,0.04556 0.75349421,0.75349421 0 0 1 0.010486,0.04592 0.75349421,0.75349421 0 0 1 0.00723,0.04701 0.75349421,0.75349421 0 0 1 0.0047,0.04701 0.75349421,0.75349421 0 0 1 0.00145,0.04737 0.75349421,0.75349421 0 0 1 -0.011571,0.130901 0.75349421,0.75349421 0 0 1 -0.033991,0.126923 0.75349421,0.75349421 0 0 1 -0.055326,0.118969 0.75349421,0.75349421 0 0 1 -0.075575,0.107396 0.75349421,0.75349421 0 0 1 -0.092571,0.09293 0.75349421,0.75349421 0 0 1 -0.1077583,0.07521 0.75349421,0.75349421 0 0 1 -0.1189682,0.05569 0.75349421,0.75349421 0 0 1 -0.1269234,0.03399 0.75349421,0.75349421 0 0 1 -0.1309011,0.01157 A 0.75349421,0.75349421 0 0 1 6.5585433,13.672798 0.75349421,0.75349421 0 0 1 6.4316199,13.638808 0.75349421,0.75349421 0 0 1 6.3126518,13.583118 0.75349421,0.75349421 0 0 1 6.205255,13.507908 0.75349421,0.75349421 0 0 1 6.112322,13.414978 0.75349421,0.75349421 0 0 1 6.037108,13.307582 0.75349421,0.75349421 0 0 1 5.981421,13.188613 0.75349421,0.75349421 0 0 1 5.94743,13.06169 0.75349421,0.75349421 0 0 1 5.935859,12.930789 0.75349421,0.75349421 0 0 1 5.94743,12.799888 a 0.75349421,0.75349421 0 0 1 0.033991,-0.126924 0.75349421,0.75349421 0 0 1 0.055687,-0.118968 0.75349421,0.75349421 0 0 1 0.075214,-0.107758 0.75349421,0.75349421 0 0 1 0.092933,-0.09257 0.75349421,0.75349421 0 0 1 0.1073968,-0.07558 0.75349421,0.75349421 0 0 1 0.1189681,-0.05532 0.75349421,0.75349421 0 0 1 0.1269234,-0.03399 0.75349421,0.75349421 0 0 1 0.1309011,-0.01157 z"
           style="fill:#9a916c;fill-opacity:1;stroke:#000000;stroke-width:0.013995"
           id="path3"
           inkscape:label="connector1pad"><title
             id="title11">GND</title></path><path
           d="m 9.1797517,11.725896 a 1.204897,1.204897 0 0 0 -0.1714009,0.01229 1.204897,1.204897 0 0 0 -0.1681464,0.03652 1.204897,1.204897 0 0 0 -0.1609143,0.06002 1.204897,1.204897 0 0 0 -0.1507894,0.08245 1.204897,1.204897 0 0 0 -0.1377715,0.103057 1.204897,1.204897 0 0 0 -0.1214994,0.1215 1.204897,1.204897 0 0 0 -0.1030575,0.137409 1.204897,1.204897 0 0 0 -0.082446,0.151152 1.204897,1.204897 0 0 0 -0.060026,0.160914 1.204897,1.204897 0 0 0 -0.036522,0.168146 1.204897,1.204897 0 0 0 -0.012295,0.171401 1.204897,1.204897 0 0 0 0.012295,0.171401 1.204897,1.204897 0 0 0 0.036522,0.168146 1.204897,1.204897 0 0 0 0.060026,0.160914 1.204897,1.204897 0 0 0 0.082446,0.15079 1.204897,1.204897 0 0 0 0.1030575,0.137771 1.204897,1.204897 0 0 0 0.1214994,0.1215 1.204897,1.204897 0 0 0 0.1377715,0.103058 1.204897,1.204897 0 0 0 0.1507894,0.08244 1.204897,1.204897 0 0 0 0.1609143,0.06002 1.204897,1.204897 0 0 0 0.1681464,0.03652 1.204897,1.204897 0 0 0 0.1714009,0.01229 1.204897,1.204897 0 0 0 0.1714009,-0.01229 1.204897,1.204897 0 0 0 0.1681464,-0.03652 1.204897,1.204897 0 0 0 0.1609144,-0.06002 1.204897,1.204897 0 0 0 0.1511509,-0.08244 1.204897,1.204897 0 0 0 0.13741,-0.103058 1.204897,1.204897 0 0 0 0.1214997,-0.1215 1.204897,1.204897 0 0 0 0.103057,-0.137771 1.204897,1.204897 0 0 0 0.08245,-0.15079 1.204897,1.204897 0 0 0 0.06003,-0.160914 1.204897,1.204897 0 0 0 0.03652,-0.168146 1.204897,1.204897 0 0 0 0.01229,-0.171401 1.204897,1.204897 0 0 0 -0.0014,-0.0593 1.204897,1.204897 0 0 0 -0.0043,-0.05894 1.204897,1.204897 0 0 0 -0.0072,-0.05858 1.204897,1.204897 0 0 0 -0.01013,-0.05822 1.204897,1.204897 0 0 0 -0.01302,-0.05785 1.204897,1.204897 0 0 0 -0.01555,-0.05677 1.204897,1.204897 0 0 0 -0.0188,-0.05641 1.204897,1.204897 0 0 0 -0.02097,-0.05496 1.204897,1.204897 0 0 0 -0.02423,-0.05424 1.204897,1.204897 0 0 0 -0.0264,-0.0528 1.204897,1.204897 0 0 0 -0.02929,-0.05135 1.204897,1.204897 0 0 0 -0.03146,-0.0499 1.204897,1.204897 0 0 0 -0.03399,-0.04846 1.204897,1.204897 0 0 0 -0.03652,-0.04664 1.204897,1.204897 0 0 0 -0.03869,-0.04484 1.204897,1.204897 0 0 0 -0.04086,-0.04267 1.204897,1.204897 0 0 0 -0.042669,-0.04086 1.204897,1.204897 0 0 0 -0.044839,-0.03869 1.204897,1.204897 0 0 0 -0.046647,-0.03652 1.204897,1.204897 0 0 0 -0.048455,-0.03399 1.204897,1.204897 0 0 0 -0.049901,-0.03146 1.204897,1.204897 0 0 0 -0.051348,-0.02929 1.204897,1.204897 0 0 0 -0.052795,-0.02639 1.204897,1.204897 0 0 0 -0.054241,-0.02423 1.204897,1.204897 0 0 0 -0.054964,-0.02097 1.204897,1.204897 0 0 0 -0.05641,-0.0188 1.204897,1.204897 0 0 0 -0.056772,-0.01555 1.204897,1.204897 0 0 0 -0.057857,-0.01302 1.204897,1.204897 0 0 0 -0.058218,-0.01012 1.204897,1.204897 0 0 0 -0.05858,-0.0072 1.204897,1.204897 0 0 0 -0.058942,-0.0043 1.204897,1.204897 0 0 0 -0.059303,-0.0015 z m 0,0.451283 a 0.75349421,0.75349421 0 0 1 0.04737,0.0015 0.75349421,0.75349421 0 0 1 0.047008,0.0047 0.75349421,0.75349421 0 0 1 0.047009,0.0072 0.75349421,0.75349421 0 0 1 0.045924,0.01049 0.75349421,0.75349421 0 0 1 0.045562,0.01301 0.75349421,0.75349421 0 0 1 0.044478,0.01591 0.75349421,0.75349421 0 0 1 0.043393,0.0188 0.75349421,0.75349421 0 0 1 0.042307,0.0217 0.75349421,0.75349421 0 0 1 0.040861,0.02387 0.75349421,0.75349421 0 0 1 0.039053,0.02676 0.75349421,0.75349421 0 0 1 0.037246,0.02893 0.75349421,0.75349421 0 0 1 0.035799,0.03146 0.75349421,0.75349421 0 0 1 0.033267,0.03327 0.75349421,0.75349421 0 0 1 0.031459,0.0358 0.75349421,0.75349421 0 0 1 0.028928,0.03725 0.75349421,0.75349421 0 0 1 0.026759,0.03905 0.75349421,0.75349421 0 0 1 0.023866,0.04086 0.75349421,0.75349421 0 0 1 0.021696,0.04231 0.75349421,0.75349421 0 0 1 0.018804,0.04339 0.75349421,0.75349421 0 0 1 0.015911,0.04448 0.75349421,0.75349421 0 0 1 0.013018,0.04556 0.75349421,0.75349421 0 0 1 0.010486,0.04592 0.75349421,0.75349421 0 0 1 0.00723,0.04701 0.75349421,0.75349421 0 0 1 0.0047,0.04701 0.75349421,0.75349421 0 0 1 0.00145,0.04737 0.75349421,0.75349421 0 0 1 -0.011571,0.130901 0.75349421,0.75349421 0 0 1 -0.033991,0.126923 0.75349421,0.75349421 0 0 1 -0.055326,0.118969 0.75349421,0.75349421 0 0 1 -0.075575,0.107396 0.75349421,0.75349421 0 0 1 -0.092571,0.09293 0.75349421,0.75349421 0 0 1 -0.1077583,0.07521 0.75349421,0.75349421 0 0 1 -0.1189682,0.05569 0.75349421,0.75349421 0 0 1 -0.1269234,0.03399 0.75349421,0.75349421 0 0 1 -0.1309011,0.01157 0.75349421,0.75349421 0 0 1 -0.1309011,-0.01157 0.75349421,0.75349421 0 0 1 -0.1269234,-0.03399 0.75349421,0.75349421 0 0 1 -0.1189681,-0.05569 0.75349421,0.75349421 0 0 1 -0.1073968,-0.07521 0.75349421,0.75349421 0 0 1 -0.092933,-0.09293 0.75349421,0.75349421 0 0 1 -0.075214,-0.107396 0.75349421,0.75349421 0 0 1 -0.055687,-0.118969 0.75349421,0.75349421 0 0 1 -0.033991,-0.126923 0.75349421,0.75349421 0 0 1 -0.011571,-0.130901 0.75349421,0.75349421 0 0 1 0.011571,-0.130901 0.75349421,0.75349421 0 0 1 0.033991,-0.126924 0.75349421,0.75349421 0 0 1 0.055687,-0.118968 0.75349421,0.75349421 0 0 1 0.075214,-0.107758 0.75349421,0.75349421 0 0 1 0.092933,-0.09257 0.75349421,0.75349421 0 0 1 0.1073968,-0.07558 0.75349421,0.75349421 0 0 1 0.1189681,-0.05532 0.75349421,0.75349421 0 0 1 0.1269234,-0.03399 0.75349421,0.75349421 0 0 1 0.1309011,-0.01157 z"
           style="fill:#9a916c;fill-opacity:1;stroke:#000000;stroke-width:0.013995"
           id="path4"
           inkscape:label="connector2pad"><title
             id="title12">SCL</title></path><path
           d="m 11.723403,11.725896 a 1.204897,1.204897 0 0 0 -0.171401,0.01229 1.204897,1.204897 0 0 0 -0.168146,0.03652 1.204897,1.204897 0 0 0 -0.160915,0.06002 1.204897,1.204897 0 0 0 -0.150789,0.08245 1.204897,1.204897 0 0 0 -0.137772,0.103057 1.204897,1.204897 0 0 0 -0.121499,0.1215 1.204897,1.204897 0 0 0 -0.103057,0.137409 1.204897,1.204897 0 0 0 -0.08245,0.151152 1.204897,1.204897 0 0 0 -0.06003,0.160914 1.204897,1.204897 0 0 0 -0.03652,0.168146 1.204897,1.204897 0 0 0 -0.01229,0.171401 1.204897,1.204897 0 0 0 0.01229,0.171401 1.204897,1.204897 0 0 0 0.03652,0.168146 1.204897,1.204897 0 0 0 0.06003,0.160914 1.204897,1.204897 0 0 0 0.08245,0.15079 1.204897,1.204897 0 0 0 0.103057,0.137771 1.204897,1.204897 0 0 0 0.121499,0.1215 1.204897,1.204897 0 0 0 0.137772,0.103058 1.204897,1.204897 0 0 0 0.150789,0.08244 1.204897,1.204897 0 0 0 0.160915,0.06002 1.204897,1.204897 0 0 0 0.168146,0.03652 1.204897,1.204897 0 0 0 0.171401,0.01229 1.204897,1.204897 0 0 0 0.171401,-0.01229 1.204897,1.204897 0 0 0 0.168146,-0.03652 1.204897,1.204897 0 0 0 0.160915,-0.06002 1.204897,1.204897 0 0 0 0.151151,-0.08244 1.204897,1.204897 0 0 0 0.13741,-0.103058 1.204897,1.204897 0 0 0 0.121499,-0.1215 1.204897,1.204897 0 0 0 0.103057,-0.137771 1.204897,1.204897 0 0 0 0.08245,-0.15079 1.204897,1.204897 0 0 0 0.06003,-0.160914 1.204897,1.204897 0 0 0 0.03652,-0.168146 1.204897,1.204897 0 0 0 0.01229,-0.171401 1.204897,1.204897 0 0 0 -0.0015,-0.0593 1.204897,1.204897 0 0 0 -0.0043,-0.05894 1.204897,1.204897 0 0 0 -0.0072,-0.05858 1.204897,1.204897 0 0 0 -0.01013,-0.05822 1.204897,1.204897 0 0 0 -0.01302,-0.05785 1.204897,1.204897 0 0 0 -0.01555,-0.05677 1.204897,1.204897 0 0 0 -0.0188,-0.05641 1.204897,1.204897 0 0 0 -0.02097,-0.05496 1.204897,1.204897 0 0 0 -0.02423,-0.05424 1.204897,1.204897 0 0 0 -0.0264,-0.0528 1.204897,1.204897 0 0 0 -0.02929,-0.05135 1.204897,1.204897 0 0 0 -0.03146,-0.0499 1.204897,1.204897 0 0 0 -0.03399,-0.04846 1.204897,1.204897 0 0 0 -0.03652,-0.04664 1.204897,1.204897 0 0 0 -0.03869,-0.04484 1.204897,1.204897 0 0 0 -0.04086,-0.04267 1.204897,1.204897 0 0 0 -0.04267,-0.04086 1.204897,1.204897 0 0 0 -0.04484,-0.03869 1.204897,1.204897 0 0 0 -0.04665,-0.03652 1.204897,1.204897 0 0 0 -0.04845,-0.03399 1.204897,1.204897 0 0 0 -0.0499,-0.03146 1.204897,1.204897 0 0 0 -0.05135,-0.02929 1.204897,1.204897 0 0 0 -0.05279,-0.02639 1.204897,1.204897 0 0 0 -0.05424,-0.02423 1.204897,1.204897 0 0 0 -0.05496,-0.02097 1.204897,1.204897 0 0 0 -0.05641,-0.0188 1.204897,1.204897 0 0 0 -0.05677,-0.01555 1.204897,1.204897 0 0 0 -0.05786,-0.01302 1.204897,1.204897 0 0 0 -0.05822,-0.01012 1.204897,1.204897 0 0 0 -0.05858,-0.0072 1.204897,1.204897 0 0 0 -0.05894,-0.0043 1.204897,1.204897 0 0 0 -0.0593,-0.0015 z m 0,0.451283 a 0.75349421,0.75349421 0 0 1 0.04737,0.0015 0.75349421,0.75349421 0 0 1 0.04701,0.0047 0.75349421,0.75349421 0 0 1 0.04701,0.0072 0.75349421,0.75349421 0 0 1 0.04592,0.01049 0.75349421,0.75349421 0 0 1 0.04556,0.01301 0.75349421,0.75349421 0 0 1 0.04448,0.01591 0.75349421,0.75349421 0 0 1 0.04339,0.0188 0.75349421,0.75349421 0 0 1 0.04231,0.0217 0.75349421,0.75349421 0 0 1 0.04086,0.02387 0.75349421,0.75349421 0 0 1 0.03905,0.02676 0.75349421,0.75349421 0 0 1 0.03725,0.02893 0.75349421,0.75349421 0 0 1 0.0358,0.03146 0.75349421,0.75349421 0 0 1 0.03327,0.03327 0.75349421,0.75349421 0 0 1 0.03146,0.0358 0.75349421,0.75349421 0 0 1 0.02893,0.03725 0.75349421,0.75349421 0 0 1 0.02676,0.03905 0.75349421,0.75349421 0 0 1 0.02387,0.04086 0.75349421,0.75349421 0 0 1 0.0217,0.04231 0.75349421,0.75349421 0 0 1 0.0188,0.04339 0.75349421,0.75349421 0 0 1 0.01591,0.04448 0.75349421,0.75349421 0 0 1 0.01302,0.04556 0.75349421,0.75349421 0 0 1 0.01049,0.04592 0.75349421,0.75349421 0 0 1 0.0072,0.04701 0.75349421,0.75349421 0 0 1 0.0047,0.04701 0.75349421,0.75349421 0 0 1 0.0015,0.04737 0.75349421,0.75349421 0 0 1 -0.01157,0.130901 0.75349421,0.75349421 0 0 1 -0.03399,0.126923 0.75349421,0.75349421 0 0 1 -0.05533,0.118969 0.75349421,0.75349421 0 0 1 -0.07558,0.107396 0.75349421,0.75349421 0 0 1 -0.09257,0.09293 0.75349421,0.75349421 0 0 1 -0.107758,0.07521 0.75349421,0.75349421 0 0 1 -0.118969,0.05569 0.75349421,0.75349421 0 0 1 -0.126923,0.03399 0.75349421,0.75349421 0 0 1 -0.130901,0.01157 0.75349421,0.75349421 0 0 1 -0.130901,-0.01157 0.75349421,0.75349421 0 0 1 -0.126924,-0.03399 0.75349421,0.75349421 0 0 1 -0.118968,-0.05569 0.75349421,0.75349421 0 0 1 -0.107396,-0.07521 0.75349421,0.75349421 0 0 1 -0.09293,-0.09293 0.75349421,0.75349421 0 0 1 -0.07521,-0.107396 0.75349421,0.75349421 0 0 1 -0.05569,-0.118969 0.75349421,0.75349421 0 0 1 -0.03399,-0.126923 0.75349421,0.75349421 0 0 1 -0.01157,-0.130901 0.75349421,0.75349421 0 0 1 0.01157,-0.130901 0.75349421,0.75349421 0 0 1 0.03399,-0.126924 0.75349421,0.75349421 0 0 1 0.05569,-0.118968 0.75349421,0.75349421 0 0 1 0.07521,-0.107758 0.75349421,0.75349421 0 0 1 0.09293,-0.09257 0.75349421,0.75349421 0 0 1 0.107396,-0.07558 0.75349421,0.75349421 0 0 1 0.118968,-0.05532 0.75349421,0.75349421 0 0 1 0.126924,-0.03399 0.75349421,0.75349421 0 0 1 0.130901,-0.01157 z"
           style="fill:#9a916c;fill-opacity:1;stroke:#000000;stroke-width:0.013995"
           id="path5"
           inkscape:label="connector3pad" /><path
           d="m 14.213709,11.725896 a 1.204897,1.204897 0 0 0 -0.171401,0.01229 1.204897,1.204897 0 0 0 -0.168146,0.03652 1.204897,1.204897 0 0 0 -0.160914,0.06002 1.204897,1.204897 0 0 0 -0.15079,0.08245 1.204897,1.204897 0 0 0 -0.137771,0.103057 1.204897,1.204897 0 0 0 -0.1215,0.1215 1.204897,1.204897 0 0 0 -0.103057,0.137409 1.204897,1.204897 0 0 0 -0.08245,0.151152 1.204897,1.204897 0 0 0 -0.06003,0.160914 1.204897,1.204897 0 0 0 -0.03652,0.168146 1.204897,1.204897 0 0 0 -0.01229,0.171401 1.204897,1.204897 0 0 0 0.01229,0.171401 1.204897,1.204897 0 0 0 0.03652,0.168146 1.204897,1.204897 0 0 0 0.06003,0.160914 1.204897,1.204897 0 0 0 0.08245,0.15079 1.204897,1.204897 0 0 0 0.103057,0.137771 1.204897,1.204897 0 0 0 0.1215,0.1215 1.204897,1.204897 0 0 0 0.137771,0.103058 1.204897,1.204897 0 0 0 0.15079,0.08244 1.204897,1.204897 0 0 0 0.160914,0.06002 1.204897,1.204897 0 0 0 0.168146,0.03652 1.204897,1.204897 0 0 0 0.171401,0.01229 1.204897,1.204897 0 0 0 0.171401,-0.01229 1.204897,1.204897 0 0 0 0.168147,-0.03652 1.204897,1.204897 0 0 0 0.160914,-0.06002 1.204897,1.204897 0 0 0 0.151151,-0.08244 1.204897,1.204897 0 0 0 0.13741,-0.103058 1.204897,1.204897 0 0 0 0.1215,-0.1215 1.204897,1.204897 0 0 0 0.103057,-0.137771 1.204897,1.204897 0 0 0 0.08245,-0.15079 1.204897,1.204897 0 0 0 0.06003,-0.160914 1.204897,1.204897 0 0 0 0.03652,-0.168146 1.204897,1.204897 0 0 0 0.01229,-0.171401 1.204897,1.204897 0 0 0 -0.0014,-0.0593 1.204897,1.204897 0 0 0 -0.0043,-0.05894 1.204897,1.204897 0 0 0 -0.0072,-0.05858 1.204897,1.204897 0 0 0 -0.01013,-0.05822 1.204897,1.204897 0 0 0 -0.01302,-0.05785 1.204897,1.204897 0 0 0 -0.01555,-0.05677 1.204897,1.204897 0 0 0 -0.0188,-0.05641 1.204897,1.204897 0 0 0 -0.02097,-0.05496 1.204897,1.204897 0 0 0 -0.02423,-0.05424 1.204897,1.204897 0 0 0 -0.0264,-0.0528 1.204897,1.204897 0 0 0 -0.02929,-0.05135 1.204897,1.204897 0 0 0 -0.03146,-0.0499 1.204897,1.204897 0 0 0 -0.03399,-0.04846 1.204897,1.204897 0 0 0 -0.03652,-0.04664 1.204897,1.204897 0 0 0 -0.03869,-0.04484 1.204897,1.204897 0 0 0 -0.04086,-0.04267 1.204897,1.204897 0 0 0 -0.04267,-0.04086 1.204897,1.204897 0 0 0 -0.04484,-0.03869 1.204897,1.204897 0 0 0 -0.04665,-0.03652 1.204897,1.204897 0 0 0 -0.04846,-0.03399 1.204897,1.204897 0 0 0 -0.0499,-0.03146 1.204897,1.204897 0 0 0 -0.05135,-0.02929 1.204897,1.204897 0 0 0 -0.05279,-0.02639 1.204897,1.204897 0 0 0 -0.05424,-0.02423 1.204897,1.204897 0 0 0 -0.05496,-0.02097 1.204897,1.204897 0 0 0 -0.05641,-0.0188 1.204897,1.204897 0 0 0 -0.05677,-0.01555 1.204897,1.204897 0 0 0 -0.05786,-0.01302 1.204897,1.204897 0 0 0 -0.05822,-0.01012 1.204897,1.204897 0 0 0 -0.05858,-0.0072 1.204897,1.204897 0 0 0 -0.05894,-0.0043 1.204897,1.204897 0 0 0 -0.0593,-0.0015 z m 0,0.451283 a 0.75349421,0.75349421 0 0 1 0.04737,0.0015 0.75349421,0.75349421 0 0 1 0.04701,0.0047 0.75349421,0.75349421 0 0 1 0.04701,0.0072 0.75349421,0.75349421 0 0 1 0.04592,0.01049 0.75349421,0.75349421 0 0 1 0.04556,0.01301 0.75349421,0.75349421 0 0 1 0.04448,0.01591 0.75349421,0.75349421 0 0 1 0.04339,0.0188 0.75349421,0.75349421 0 0 1 0.04231,0.0217 0.75349421,0.75349421 0 0 1 0.04086,0.02387 0.75349421,0.75349421 0 0 1 0.03905,0.02676 0.75349421,0.75349421 0 0 1 0.03725,0.02893 0.75349421,0.75349421 0 0 1 0.0358,0.03146 0.75349421,0.75349421 0 0 1 0.03327,0.03327 0.75349421,0.75349421 0 0 1 0.03146,0.0358 0.75349421,0.75349421 0 0 1 0.02893,0.03725 0.75349421,0.75349421 0 0 1 0.02676,0.03905 0.75349421,0.75349421 0 0 1 0.02387,0.04086 0.75349421,0.75349421 0 0 1 0.0217,0.04231 0.75349421,0.75349421 0 0 1 0.0188,0.04339 0.75349421,0.75349421 0 0 1 0.01591,0.04448 0.75349421,0.75349421 0 0 1 0.01302,0.04556 0.75349421,0.75349421 0 0 1 0.01049,0.04592 0.75349421,0.75349421 0 0 1 0.0072,0.04701 0.75349421,0.75349421 0 0 1 0.0047,0.04701 0.75349421,0.75349421 0 0 1 0.0015,0.04737 0.75349421,0.75349421 0 0 1 -0.01157,0.130901 0.75349421,0.75349421 0 0 1 -0.03399,0.126923 0.75349421,0.75349421 0 0 1 -0.05533,0.118969 0.75349421,0.75349421 0 0 1 -0.07558,0.107396 0.75349421,0.75349421 0 0 1 -0.09257,0.09293 0.75349421,0.75349421 0 0 1 -0.107758,0.07521 0.75349421,0.75349421 0 0 1 -0.118968,0.05569 0.75349421,0.75349421 0 0 1 -0.126924,0.03399 0.75349421,0.75349421 0 0 1 -0.130901,0.01157 0.75349421,0.75349421 0 0 1 -0.130901,-0.01157 0.75349421,0.75349421 0 0 1 -0.126923,-0.03399 0.75349421,0.75349421 0 0 1 -0.118968,-0.05569 0.75349421,0.75349421 0 0 1 -0.107397,-0.07521 0.75349421,0.75349421 0 0 1 -0.09293,-0.09293 0.75349421,0.75349421 0 0 1 -0.07521,-0.107396 0.75349421,0.75349421 0 0 1 -0.05569,-0.118969 0.75349421,0.75349421 0 0 1 -0.03399,-0.126923 0.75349421,0.75349421 0 0 1 -0.01157,-0.130901 0.75349421,0.75349421 0 0 1 0.01157,-0.130901 0.75349421,0.75349421 0 0 1 0.03399,-0.126924 0.75349421,0.75349421 0 0 1 0.05569,-0.118968 0.75349421,0.75349421 0 0 1 0.07521,-0.107758 0.75349421,0.75349421 0 0 1 0.09293,-0.09257 0.75349421,0.75349421 0 0 1 0.107397,-0.07558 0.75349421,0.75349421 0 0 1 0.118968,-0.05532 0.75349421,0.75349421 0 0 1 0.126923,-0.03399 0.75349421,0.75349421 0 0 1 0.130901,-0.01157 z"
           style="fill:#9a916c;fill-opacity:1;stroke:#000000;stroke-width:0.013995"
           id="path6"
           inkscape:label="connector4pad" /><path
           d="m 6.6894454,1.2842811 a 1.204897,1.204897 0 0 0 -0.1714009,0.01229 1.204897,1.204897 0 0 0 -0.1681464,0.03652 1.204897,1.204897 0 0 0 -0.1609143,0.06002 1.204897,1.204897 0 0 0 -0.1507894,0.08245 1.204897,1.204897 0 0 0 -0.1377715,0.103057 1.204897,1.204897 0 0 0 -0.1214994,0.1215 1.204897,1.204897 0 0 0 -0.1030575,0.137409 1.204897,1.204897 0 0 0 -0.082446,0.151152 1.204897,1.204897 0 0 0 -0.060026,0.160914 1.204897,1.204897 0 0 0 -0.036522,0.168146 1.204897,1.204897 0 0 0 -0.012295,0.171401 1.204897,1.204897 0 0 0 0.012295,0.171401 1.204897,1.204897 0 0 0 0.036522,0.168146 1.204897,1.204897 0 0 0 0.060026,0.160914 1.204897,1.204897 0 0 0 0.082446,0.15079 1.204897,1.204897 0 0 0 0.1030575,0.137771 1.204897,1.204897 0 0 0 0.1214994,0.1215 1.204897,1.204897 0 0 0 0.1377715,0.103058 1.204897,1.204897 0 0 0 0.1507894,0.08244 1.204897,1.204897 0 0 0 0.1609143,0.06002 1.204897,1.204897 0 0 0 0.1681464,0.03652 1.204897,1.204897 0 0 0 0.1714009,0.01229 1.204897,1.204897 0 0 0 0.1714009,-0.01229 1.204897,1.204897 0 0 0 0.1681464,-0.03652 1.204897,1.204897 0 0 0 0.1609144,-0.06002 1.204897,1.204897 0 0 0 0.1511509,-0.08244 1.204897,1.204897 0 0 0 0.13741,-0.103058 1.204897,1.204897 0 0 0 0.1214994,-0.1215 1.204897,1.204897 0 0 0 0.1030575,-0.137771 1.204897,1.204897 0 0 0 0.082446,-0.15079 1.204897,1.204897 0 0 0 0.060027,-0.160914 1.204897,1.204897 0 0 0 0.036522,-0.168146 1.204897,1.204897 0 0 0 0.012295,-0.171401 1.204897,1.204897 0 0 0 -0.00145,-0.0593 1.204897,1.204897 0 0 0 -0.00434,-0.05894 1.204897,1.204897 0 0 0 -0.00723,-0.05858 1.204897,1.204897 0 0 0 -0.010125,-0.05822 1.204897,1.204897 0 0 0 -0.013018,-0.05785 1.204897,1.204897 0 0 0 -0.015549,-0.05677 1.204897,1.204897 0 0 0 -0.018804,-0.05641 1.204897,1.204897 0 0 0 -0.020973,-0.05496 1.204897,1.204897 0 0 0 -0.024227,-0.05424 1.204897,1.204897 0 0 0 -0.026397,-0.0528 1.204897,1.204897 0 0 0 -0.02929,-0.05135 1.204897,1.204897 0 0 0 -0.031459,-0.0499 1.204897,1.204897 0 0 0 -0.033991,-0.04846 1.204897,1.204897 0 0 0 -0.036522,-0.04664 1.204897,1.204897 0 0 0 -0.038692,-0.04484 1.204897,1.204897 0 0 0 -0.040861,-0.04267 1.204897,1.204897 0 0 0 -0.042669,-0.04086 1.204897,1.204897 0 0 0 -0.044839,-0.03869 1.204897,1.204897 0 0 0 -0.046647,-0.03652 1.204897,1.204897 0 0 0 -0.048455,-0.03399 1.204897,1.204897 0 0 0 -0.049901,-0.03146 1.204897,1.204897 0 0 0 -0.051348,-0.02929 1.204897,1.204897 0 0 0 -0.052795,-0.02639 1.204897,1.204897 0 0 0 -0.054241,-0.02423 1.204897,1.204897 0 0 0 -0.054964,-0.02097 1.204897,1.204897 0 0 0 -0.05641,-0.0188 1.204897,1.204897 0 0 0 -0.056772,-0.01555 1.204897,1.204897 0 0 0 -0.057857,-0.01302 1.204897,1.204897 0 0 0 -0.058218,-0.01012 1.204897,1.204897 0 0 0 -0.05858,-0.0072 1.204897,1.204897 0 0 0 -0.058942,-0.0043 1.204897,1.204897 0 0 0 -0.059303,-0.0015 z m 0,0.451283 a 0.75349421,0.75349421 0 0 1 0.04737,0.0015 0.75349421,0.75349421 0 0 1 0.047008,0.0047 0.75349421,0.75349421 0 0 1 0.047009,0.0072 0.75349421,0.75349421 0 0 1 0.045924,0.01049 0.75349421,0.75349421 0 0 1 0.045562,0.01301 0.75349421,0.75349421 0 0 1 0.044478,0.01591 0.75349421,0.75349421 0 0 1 0.043393,0.0188 0.75349421,0.75349421 0 0 1 0.042307,0.0217 0.75349421,0.75349421 0 0 1 0.040861,0.02387 0.75349421,0.75349421 0 0 1 0.039053,0.02676 0.75349421,0.75349421 0 0 1 0.037246,0.02893 0.75349421,0.75349421 0 0 1 0.035799,0.03146 0.75349421,0.75349421 0 0 1 0.033267,0.03327 0.75349421,0.75349421 0 0 1 0.031459,0.0358 0.75349421,0.75349421 0 0 1 0.028928,0.03725 0.75349421,0.75349421 0 0 1 0.026759,0.03905 0.75349421,0.75349421 0 0 1 0.023866,0.04086 0.75349421,0.75349421 0 0 1 0.021696,0.04231 0.75349421,0.75349421 0 0 1 0.018804,0.04339 0.75349421,0.75349421 0 0 1 0.015911,0.04448 0.75349421,0.75349421 0 0 1 0.013018,0.04556 0.75349421,0.75349421 0 0 1 0.010486,0.04592 0.75349421,0.75349421 0 0 1 0.00723,0.04701 0.75349421,0.75349421 0 0 1 0.0047,0.04701 0.75349421,0.75349421 0 0 1 0.00145,0.04737 0.75349421,0.75349421 0 0 1 -0.011571,0.130901 0.75349421,0.75349421 0 0 1 -0.033991,0.126923 0.75349421,0.75349421 0 0 1 -0.055326,0.118969 0.75349421,0.75349421 0 0 1 -0.075575,0.107396 0.75349421,0.75349421 0 0 1 -0.092571,0.09293 0.75349421,0.75349421 0 0 1 -0.1077583,0.07521 0.75349421,0.75349421 0 0 1 -0.1189682,0.05569 0.75349421,0.75349421 0 0 1 -0.1269234,0.03399 0.75349421,0.75349421 0 0 1 -0.1309011,0.01157 A 0.75349421,0.75349421 0 0 1 6.5585433,3.2311831 0.75349421,0.75349421 0 0 1 6.4316199,3.1971931 0.75349421,0.75349421 0 0 1 6.3126518,3.1415031 0.75349421,0.75349421 0 0 1 6.205255,3.0662931 0.75349421,0.75349421 0 0 1 6.112322,2.9733631 0.75349421,0.75349421 0 0 1 6.037108,2.8659671 0.75349421,0.75349421 0 0 1 5.981421,2.7469981 0.75349421,0.75349421 0 0 1 5.94743,2.6200751 0.75349421,0.75349421 0 0 1 5.935859,2.4891741 0.75349421,0.75349421 0 0 1 5.94743,2.3582731 a 0.75349421,0.75349421 0 0 1 0.033991,-0.126924 0.75349421,0.75349421 0 0 1 0.055687,-0.118968 0.75349421,0.75349421 0 0 1 0.075214,-0.107758 0.75349421,0.75349421 0 0 1 0.092933,-0.09257 0.75349421,0.75349421 0 0 1 0.1073968,-0.07558 0.75349421,0.75349421 0 0 1 0.1189681,-0.05532 0.75349421,0.75349421 0 0 1 0.1269234,-0.03399 0.75349421,0.75349421 0 0 1 0.1309011,-0.01157 z"
           style="fill:#9a916c;fill-opacity:1;stroke:#000000;stroke-width:0.013995"
           id="path7"
           inkscape:label="connector5pad" /><path
           d="m 9.1797517,1.2842811 a 1.204897,1.204897 0 0 0 -0.1714009,0.01229 1.204897,1.204897 0 0 0 -0.1681464,0.03652 1.204897,1.204897 0 0 0 -0.1609143,0.06002 1.204897,1.204897 0 0 0 -0.1507894,0.08245 1.204897,1.204897 0 0 0 -0.1377715,0.103057 1.204897,1.204897 0 0 0 -0.1214994,0.1215 1.204897,1.204897 0 0 0 -0.1030575,0.137409 1.204897,1.204897 0 0 0 -0.082446,0.151152 1.204897,1.204897 0 0 0 -0.060026,0.160914 1.204897,1.204897 0 0 0 -0.036522,0.168146 1.204897,1.204897 0 0 0 -0.012295,0.171401 1.204897,1.204897 0 0 0 0.012295,0.171401 1.204897,1.204897 0 0 0 0.036522,0.168146 1.204897,1.204897 0 0 0 0.060026,0.160914 1.204897,1.204897 0 0 0 0.082446,0.15079 1.204897,1.204897 0 0 0 0.1030575,0.137771 1.204897,1.204897 0 0 0 0.1214994,0.1215 1.204897,1.204897 0 0 0 0.1377715,0.103058 1.204897,1.204897 0 0 0 0.1507894,0.08244 1.204897,1.204897 0 0 0 0.1609143,0.06002 1.204897,1.204897 0 0 0 0.1681464,0.03652 1.204897,1.204897 0 0 0 0.1714009,0.01229 1.204897,1.204897 0 0 0 0.1714009,-0.01229 1.204897,1.204897 0 0 0 0.1681464,-0.03652 1.204897,1.204897 0 0 0 0.1609144,-0.06002 1.204897,1.204897 0 0 0 0.1511509,-0.08244 1.204897,1.204897 0 0 0 0.13741,-0.103058 1.204897,1.204897 0 0 0 0.1214997,-0.1215 1.204897,1.204897 0 0 0 0.103057,-0.137771 1.204897,1.204897 0 0 0 0.08245,-0.15079 1.204897,1.204897 0 0 0 0.06003,-0.160914 1.204897,1.204897 0 0 0 0.03652,-0.168146 1.204897,1.204897 0 0 0 0.01229,-0.171401 1.204897,1.204897 0 0 0 -0.0014,-0.0593 1.204897,1.204897 0 0 0 -0.0043,-0.05894 1.204897,1.204897 0 0 0 -0.0072,-0.05858 1.204897,1.204897 0 0 0 -0.01013,-0.05822 1.204897,1.204897 0 0 0 -0.01302,-0.05785 1.204897,1.204897 0 0 0 -0.01555,-0.05677 1.204897,1.204897 0 0 0 -0.0188,-0.05641 1.204897,1.204897 0 0 0 -0.02097,-0.05496 1.204897,1.204897 0 0 0 -0.02423,-0.05424 1.204897,1.204897 0 0 0 -0.0264,-0.0528 1.204897,1.204897 0 0 0 -0.02929,-0.05135 1.204897,1.204897 0 0 0 -0.03146,-0.0499 1.204897,1.204897 0 0 0 -0.03399,-0.04846 1.204897,1.204897 0 0 0 -0.03652,-0.04664 1.204897,1.204897 0 0 0 -0.03869,-0.04484 1.204897,1.204897 0 0 0 -0.04086,-0.04267 1.204897,1.204897 0 0 0 -0.042669,-0.04086 1.204897,1.204897 0 0 0 -0.044839,-0.03869 1.204897,1.204897 0 0 0 -0.046647,-0.03652 1.204897,1.204897 0 0 0 -0.048455,-0.03399 1.204897,1.204897 0 0 0 -0.049901,-0.03146 1.204897,1.204897 0 0 0 -0.051348,-0.02929 1.204897,1.204897 0 0 0 -0.052795,-0.02639 1.204897,1.204897 0 0 0 -0.054241,-0.02423 1.204897,1.204897 0 0 0 -0.054964,-0.02097 1.204897,1.204897 0 0 0 -0.05641,-0.0188 1.204897,1.204897 0 0 0 -0.056772,-0.01555 1.204897,1.204897 0 0 0 -0.057857,-0.01302 1.204897,1.204897 0 0 0 -0.058218,-0.01012 1.204897,1.204897 0 0 0 -0.05858,-0.0072 1.204897,1.204897 0 0 0 -0.058942,-0.0043 1.204897,1.204897 0 0 0 -0.059303,-0.0015 z m 0,0.451283 a 0.75349421,0.75349421 0 0 1 0.04737,0.0015 0.75349421,0.75349421 0 0 1 0.047008,0.0047 0.75349421,0.75349421 0 0 1 0.047009,0.0072 0.75349421,0.75349421 0 0 1 0.045924,0.01049 0.75349421,0.75349421 0 0 1 0.045562,0.01301 0.75349421,0.75349421 0 0 1 0.044478,0.01591 0.75349421,0.75349421 0 0 1 0.043393,0.0188 0.75349421,0.75349421 0 0 1 0.042307,0.0217 0.75349421,0.75349421 0 0 1 0.040861,0.02387 0.75349421,0.75349421 0 0 1 0.039053,0.02676 0.75349421,0.75349421 0 0 1 0.037246,0.02893 0.75349421,0.75349421 0 0 1 0.035799,0.03146 0.75349421,0.75349421 0 0 1 0.033267,0.03327 0.75349421,0.75349421 0 0 1 0.031459,0.0358 0.75349421,0.75349421 0 0 1 0.028928,0.03725 0.75349421,0.75349421 0 0 1 0.026759,0.03905 0.75349421,0.75349421 0 0 1 0.023866,0.04086 0.75349421,0.75349421 0 0 1 0.021696,0.04231 0.75349421,0.75349421 0 0 1 0.018804,0.04339 0.75349421,0.75349421 0 0 1 0.015911,0.04448 0.75349421,0.75349421 0 0 1 0.013018,0.04556 0.75349421,0.75349421 0 0 1 0.010486,0.04592 0.75349421,0.75349421 0 0 1 0.00723,0.04701 0.75349421,0.75349421 0 0 1 0.0047,0.04701 0.75349421,0.75349421 0 0 1 0.00145,0.04737 0.75349421,0.75349421 0 0 1 -0.011571,0.130901 0.75349421,0.75349421 0 0 1 -0.033991,0.126923 0.75349421,0.75349421 0 0 1 -0.055326,0.118969 0.75349421,0.75349421 0 0 1 -0.075575,0.107396 0.75349421,0.75349421 0 0 1 -0.092571,0.09293 0.75349421,0.75349421 0 0 1 -0.1077583,0.07521 0.75349421,0.75349421 0 0 1 -0.1189682,0.05569 0.75349421,0.75349421 0 0 1 -0.1269234,0.03399 0.75349421,0.75349421 0 0 1 -0.1309011,0.01157 0.75349421,0.75349421 0 0 1 -0.1309011,-0.01157 0.75349421,0.75349421 0 0 1 -0.1269234,-0.03399 0.75349421,0.75349421 0 0 1 -0.1189681,-0.05569 0.75349421,0.75349421 0 0 1 -0.1073968,-0.07521 0.75349421,0.75349421 0 0 1 -0.092933,-0.09293 0.75349421,0.75349421 0 0 1 -0.075214,-0.107396 0.75349421,0.75349421 0 0 1 -0.055687,-0.118969 0.75349421,0.75349421 0 0 1 -0.033991,-0.126923 0.75349421,0.75349421 0 0 1 -0.011571,-0.130901 0.75349421,0.75349421 0 0 1 0.011571,-0.130901 0.75349421,0.75349421 0 0 1 0.033991,-0.126924 0.75349421,0.75349421 0 0 1 0.055687,-0.118968 0.75349421,0.75349421 0 0 1 0.075214,-0.107758 0.75349421,0.75349421 0 0 1 0.092933,-0.09257 0.75349421,0.75349421 0 0 1 0.1073968,-0.07558 0.75349421,0.75349421 0 0 1 0.1189681,-0.05532 0.75349421,0.75349421 0 0 1 0.1269234,-0.03399 0.75349421,0.75349421 0 0 1 0.1309011,-0.01157 z"
           style="fill:#9a916c;fill-opacity:1;stroke:#000000;stroke-width:0.013995"
           id="path8"
           inkscape:label="connector6pad" /><path
           d="m 11.723403,1.2842811 a 1.204897,1.204897 0 0 0 -0.171401,0.01229 1.204897,1.204897 0 0 0 -0.168146,0.03652 1.204897,1.204897 0 0 0 -0.160915,0.06002 1.204897,1.204897 0 0 0 -0.150789,0.08245 1.204897,1.204897 0 0 0 -0.137772,0.103057 1.204897,1.204897 0 0 0 -0.121499,0.1215 1.204897,1.204897 0 0 0 -0.103057,0.137409 1.204897,1.204897 0 0 0 -0.08245,0.151152 1.204897,1.204897 0 0 0 -0.06003,0.160914 1.204897,1.204897 0 0 0 -0.03652,0.168146 1.204897,1.204897 0 0 0 -0.01229,0.171401 1.204897,1.204897 0 0 0 0.01229,0.171401 1.204897,1.204897 0 0 0 0.03652,0.168146 1.204897,1.204897 0 0 0 0.06003,0.160914 1.204897,1.204897 0 0 0 0.08245,0.15079 1.204897,1.204897 0 0 0 0.103057,0.137771 1.204897,1.204897 0 0 0 0.121499,0.1215 1.204897,1.204897 0 0 0 0.137772,0.103058 1.204897,1.204897 0 0 0 0.150789,0.08244 1.204897,1.204897 0 0 0 0.160915,0.06002 1.204897,1.204897 0 0 0 0.168146,0.03652 1.204897,1.204897 0 0 0 0.171401,0.01229 1.204897,1.204897 0 0 0 0.171401,-0.01229 1.204897,1.204897 0 0 0 0.168146,-0.03652 1.204897,1.204897 0 0 0 0.160915,-0.06002 1.204897,1.204897 0 0 0 0.151151,-0.08244 1.204897,1.204897 0 0 0 0.13741,-0.103058 1.204897,1.204897 0 0 0 0.121499,-0.1215 1.204897,1.204897 0 0 0 0.103057,-0.137771 1.204897,1.204897 0 0 0 0.08245,-0.15079 1.204897,1.204897 0 0 0 0.06003,-0.160914 1.204897,1.204897 0 0 0 0.03652,-0.168146 1.204897,1.204897 0 0 0 0.01229,-0.171401 1.204897,1.204897 0 0 0 -0.0015,-0.0593 1.204897,1.204897 0 0 0 -0.0043,-0.05894 1.204897,1.204897 0 0 0 -0.0072,-0.05858 1.204897,1.204897 0 0 0 -0.01013,-0.05822 1.204897,1.204897 0 0 0 -0.01302,-0.05785 1.204897,1.204897 0 0 0 -0.01555,-0.05677 1.204897,1.204897 0 0 0 -0.0188,-0.05641 1.204897,1.204897 0 0 0 -0.02097,-0.05496 1.204897,1.204897 0 0 0 -0.02423,-0.05424 1.204897,1.204897 0 0 0 -0.0264,-0.0528 1.204897,1.204897 0 0 0 -0.02929,-0.05135 1.204897,1.204897 0 0 0 -0.03146,-0.0499 1.204897,1.204897 0 0 0 -0.03399,-0.04846 1.204897,1.204897 0 0 0 -0.03652,-0.04664 1.204897,1.204897 0 0 0 -0.03869,-0.04484 1.204897,1.204897 0 0 0 -0.04086,-0.04267 1.204897,1.204897 0 0 0 -0.04267,-0.04086 1.204897,1.204897 0 0 0 -0.04484,-0.03869 1.204897,1.204897 0 0 0 -0.04665,-0.03652 1.204897,1.204897 0 0 0 -0.04845,-0.03399 1.204897,1.204897 0 0 0 -0.0499,-0.03146 1.204897,1.204897 0 0 0 -0.05135,-0.02929 1.204897,1.204897 0 0 0 -0.05279,-0.02639 1.204897,1.204897 0 0 0 -0.05424,-0.02423 1.204897,1.204897 0 0 0 -0.05496,-0.02097 1.204897,1.204897 0 0 0 -0.05641,-0.0188 1.204897,1.204897 0 0 0 -0.05677,-0.01555 1.204897,1.204897 0 0 0 -0.05786,-0.01302 1.204897,1.204897 0 0 0 -0.05822,-0.01012 1.204897,1.204897 0 0 0 -0.05858,-0.0072 1.204897,1.204897 0 0 0 -0.05894,-0.0043 1.204897,1.204897 0 0 0 -0.0593,-0.0015 z m 0,0.451283 a 0.75349421,0.75349421 0 0 1 0.04737,0.0015 0.75349421,0.75349421 0 0 1 0.04701,0.0047 0.75349421,0.75349421 0 0 1 0.04701,0.0072 0.75349421,0.75349421 0 0 1 0.04592,0.01049 0.75349421,0.75349421 0 0 1 0.04556,0.01301 0.75349421,0.75349421 0 0 1 0.04448,0.01591 0.75349421,0.75349421 0 0 1 0.04339,0.0188 0.75349421,0.75349421 0 0 1 0.04231,0.0217 0.75349421,0.75349421 0 0 1 0.04086,0.02387 0.75349421,0.75349421 0 0 1 0.03905,0.02676 0.75349421,0.75349421 0 0 1 0.03725,0.02893 0.75349421,0.75349421 0 0 1 0.0358,0.03146 0.75349421,0.75349421 0 0 1 0.03327,0.03327 0.75349421,0.75349421 0 0 1 0.03146,0.0358 0.75349421,0.75349421 0 0 1 0.02893,0.03725 0.75349421,0.75349421 0 0 1 0.02676,0.03905 0.75349421,0.75349421 0 0 1 0.02387,0.04086 0.75349421,0.75349421 0 0 1 0.0217,0.04231 0.75349421,0.75349421 0 0 1 0.0188,0.04339 0.75349421,0.75349421 0 0 1 0.01591,0.04448 0.75349421,0.75349421 0 0 1 0.01302,0.04556 0.75349421,0.75349421 0 0 1 0.01049,0.04592 0.75349421,0.75349421 0 0 1 0.0072,0.04701 0.75349421,0.75349421 0 0 1 0.0047,0.04701 0.75349421,0.75349421 0 0 1 0.0015,0.04737 0.75349421,0.75349421 0 0 1 -0.01157,0.130901 0.75349421,0.75349421 0 0 1 -0.03399,0.126923 0.75349421,0.75349421 0 0 1 -0.05533,0.118969 0.75349421,0.75349421 0 0 1 -0.07558,0.107396 0.75349421,0.75349421 0 0 1 -0.09257,0.09293 0.75349421,0.75349421 0 0 1 -0.107758,0.07521 0.75349421,0.75349421 0 0 1 -0.118969,0.05569 0.75349421,0.75349421 0 0 1 -0.126923,0.03399 0.75349421,0.75349421 0 0 1 -0.130901,0.01157 0.75349421,0.75349421 0 0 1 -0.130901,-0.01157 0.75349421,0.75349421 0 0 1 -0.126924,-0.03399 0.75349421,0.75349421 0 0 1 -0.118968,-0.05569 0.75349421,0.75349421 0 0 1 -0.107396,-0.07521 0.75349421,0.75349421 0 0 1 -0.09293,-0.09293 0.75349421,0.75349421 0 0 1 -0.07521,-0.107396 0.75349421,0.75349421 0 0 1 -0.05569,-0.118969 0.75349421,0.75349421 0 0 1 -0.03399,-0.126923 0.75349421,0.75349421 0 0 1 -0.01157,-0.130901 0.75349421,0.75349421 0 0 1 0.01157,-0.130901 0.75349421,0.75349421 0 0 1 0.03399,-0.126924 0.75349421,0.75349421 0 0 1 0.05569,-0.118968 0.75349421,0.75349421 0 0 1 0.07521,-0.107758 0.75349421,0.75349421 0 0 1 0.09293,-0.09257 0.75349421,0.75349421 0 0 1 0.107396,-0.07558 0.75349421,0.75349421 0 0 1 0.118968,-0.05532 0.75349421,0.75349421 0 0 1 0.126924,-0.03399 0.75349421,0.75349421 0 0 1 0.130901,-0.01157 z"
           style="fill:#9a916c;fill-opacity:1;stroke:#000000;stroke-width:0.013995"
           id="path9"
           inkscape:label="connector7pad" /><path
           d="m 14.213709,1.2842811 a 1.204897,1.204897 0 0 0 -0.171401,0.01229 1.204897,1.204897 0 0 0 -0.168146,0.03652 1.204897,1.204897 0 0 0 -0.160914,0.06002 1.204897,1.204897 0 0 0 -0.15079,0.08245 1.204897,1.204897 0 0 0 -0.137771,0.103057 1.204897,1.204897 0 0 0 -0.1215,0.1215 1.204897,1.204897 0 0 0 -0.103057,0.137409 1.204897,1.204897 0 0 0 -0.08245,0.151152 1.204897,1.204897 0 0 0 -0.06003,0.160914 1.204897,1.204897 0 0 0 -0.03652,0.168146 1.204897,1.204897 0 0 0 -0.01229,0.171401 1.204897,1.204897 0 0 0 0.01229,0.171401 1.204897,1.204897 0 0 0 0.03652,0.168146 1.204897,1.204897 0 0 0 0.06003,0.160914 1.204897,1.204897 0 0 0 0.08245,0.15079 1.204897,1.204897 0 0 0 0.103057,0.137771 1.204897,1.204897 0 0 0 0.1215,0.1215 1.204897,1.204897 0 0 0 0.137771,0.103058 1.204897,1.204897 0 0 0 0.15079,0.08244 1.204897,1.204897 0 0 0 0.160914,0.06002 1.204897,1.204897 0 0 0 0.168146,0.03652 1.204897,1.204897 0 0 0 0.171401,0.01229 1.204897,1.204897 0 0 0 0.171401,-0.01229 1.204897,1.204897 0 0 0 0.168147,-0.03652 1.204897,1.204897 0 0 0 0.160914,-0.06002 1.204897,1.204897 0 0 0 0.151151,-0.08244 1.204897,1.204897 0 0 0 0.13741,-0.103058 1.204897,1.204897 0 0 0 0.1215,-0.1215 1.204897,1.204897 0 0 0 0.103057,-0.137771 1.204897,1.204897 0 0 0 0.08245,-0.15079 1.204897,1.204897 0 0 0 0.06003,-0.160914 1.204897,1.204897 0 0 0 0.03652,-0.168146 1.204897,1.204897 0 0 0 0.01229,-0.171401 1.204897,1.204897 0 0 0 -0.0014,-0.0593 1.204897,1.204897 0 0 0 -0.0043,-0.05894 1.204897,1.204897 0 0 0 -0.0072,-0.05858 1.204897,1.204897 0 0 0 -0.01013,-0.05822 1.204897,1.204897 0 0 0 -0.01302,-0.05785 1.204897,1.204897 0 0 0 -0.01555,-0.05677 1.204897,1.204897 0 0 0 -0.0188,-0.05641 1.204897,1.204897 0 0 0 -0.02097,-0.05496 1.204897,1.204897 0 0 0 -0.02423,-0.05424 1.204897,1.204897 0 0 0 -0.0264,-0.0528 1.204897,1.204897 0 0 0 -0.02929,-0.05135 1.204897,1.204897 0 0 0 -0.03146,-0.0499 1.204897,1.204897 0 0 0 -0.03399,-0.04846 1.204897,1.204897 0 0 0 -0.03652,-0.04664 1.204897,1.204897 0 0 0 -0.03869,-0.04484 1.204897,1.204897 0 0 0 -0.04086,-0.04267 1.204897,1.204897 0 0 0 -0.04267,-0.04086 1.204897,1.204897 0 0 0 -0.04484,-0.03869 1.204897,1.204897 0 0 0 -0.04665,-0.03652 1.204897,1.204897 0 0 0 -0.04846,-0.03399 1.204897,1.204897 0 0 0 -0.0499,-0.03146 1.204897,1.204897 0 0 0 -0.05135,-0.02929 1.204897,1.204897 0 0 0 -0.05279,-0.02639 1.204897,1.204897 0 0 0 -0.05424,-0.02423 1.204897,1.204897 0 0 0 -0.05496,-0.02097 1.204897,1.204897 0 0 0 -0.05641,-0.0188 1.204897,1.204897 0 0 0 -0.05677,-0.01555 1.204897,1.204897 0 0 0 -0.05786,-0.01302 1.204897,1.204897 0 0 0 -0.05822,-0.01012 1.204897,1.204897 0 0 0 -0.05858,-0.0072 1.204897,1.204897 0 0 0 -0.05894,-0.0043 1.204897,1.204897 0 0 0 -0.0593,-0.0015 z m 0,0.451283 a 0.75349421,0.75349421 0 0 1 0.04737,0.0015 0.75349421,0.75349421 0 0 1 0.04701,0.0047 0.75349421,0.75349421 0 0 1 0.04701,0.0072 0.75349421,0.75349421 0 0 1 0.04592,0.01049 0.75349421,0.75349421 0 0 1 0.04556,0.01301 0.75349421,0.75349421 0 0 1 0.04448,0.01591 0.75349421,0.75349421 0 0 1 0.04339,0.0188 0.75349421,0.75349421 0 0 1 0.04231,0.0217 0.75349421,0.75349421 0 0 1 0.04086,0.02387 0.75349421,0.75349421 0 0 1 0.03905,0.02676 0.75349421,0.75349421 0 0 1 0.03725,0.02893 0.75349421,0.75349421 0 0 1 0.0358,0.03146 0.75349421,0.75349421 0 0 1 0.03327,0.03327 0.75349421,0.75349421 0 0 1 0.03146,0.0358 0.75349421,0.75349421 0 0 1 0.02893,0.03725 0.75349421,0.75349421 0 0 1 0.02676,0.03905 0.75349421,0.75349421 0 0 1 0.02387,0.04086 0.75349421,0.75349421 0 0 1 0.0217,0.04231 0.75349421,0.75349421 0 0 1 0.0188,0.04339 0.75349421,0.75349421 0 0 1 0.01591,0.04448 0.75349421,0.75349421 0 0 1 0.01302,0.04556 0.75349421,0.75349421 0 0 1 0.01049,0.04592 0.75349421,0.75349421 0 0 1 0.0072,0.04701 0.75349421,0.75349421 0 0 1 0.0047,0.04701 0.75349421,0.75349421 0 0 1 0.0015,0.04737 0.75349421,0.75349421 0 0 1 -0.01157,0.130901 0.75349421,0.75349421 0 0 1 -0.03399,0.126923 0.75349421,0.75349421 0 0 1 -0.05533,0.118969 0.75349421,0.75349421 0 0 1 -0.07558,0.107396 0.75349421,0.75349421 0 0 1 -0.09257,0.09293 0.75349421,0.75349421 0 0 1 -0.107758,0.07521 0.75349421,0.75349421 0 0 1 -0.118968,0.05569 0.75349421,0.75349421 0 0 1 -0.126924,0.03399 0.75349421,0.75349421 0 0 1 -0.130901,0.01157 0.75349421,0.75349421 0 0 1 -0.130901,-0.01157 0.75349421,0.75349421 0 0 1 -0.126923,-0.03399 0.75349421,0.75349421 0 0 1 -0.118968,-0.05569 0.75349421,0.75349421 0 0 1 -0.107397,-0.07521 0.75349421,0.75349421 0 0 1 -0.09293,-0.09293 0.75349421,0.75349421 0 0 1 -0.07521,-0.107396 0.75349421,0.75349421 0 0 1 -0.05569,-0.118969 0.75349421,0.75349421 0 0 1 -0.03399,-0.126923 0.75349421,0.75349421 0 0 1 -0.01157,-0.130901 0.75349421,0.75349421 0 0 1 0.01157,-0.130901 0.75349421,0.75349421 0 0 1 0.03399,-0.126924 0.75349421,0.75349421 0 0 1 0.05569,-0.118968 0.75349421,0.75349421 0 0 1 0.07521,-0.107758 0.75349421,0.75349421 0 0 1 0.09293,-0.09257 0.75349421,0.75349421 0 0 1 0.107397,-0.07558 0.75349421,0.75349421 0 0 1 0.118968,-0.05532 0.75349421,0.75349421 0 0 1 0.126923,-0.03399 0.75349421,0.75349421 0 0 1 0.130901,-0.01157 z"
           style="fill:#9a916c;fill-opacity:1;stroke:#000000;stroke-width:0.013995"
           id="path10"
           inkscape:label="connector8pad" /></g></g></g></svg>
