<?xml version="1.0" encoding="UTF-8" standalone="no"?>
<!-- Created with Inkscape (http://www.inkscape.org/) -->

<svg
   width="25mm"
   height="35mm"
   viewBox="0 0 25 35"
   version="1.1"
   id="svg1"
   xml:space="preserve"
   inkscape:version="1.3 (0e150ed6c4, 2023-07-21)"
   sodipodi:docname="NEO6MV2.svg"
   xmlns:inkscape="http://www.inkscape.org/namespaces/inkscape"
   xmlns:sodipodi="http://sodipodi.sourceforge.net/DTD/sodipodi-0.dtd"
   xmlns="http://www.w3.org/2000/svg"
   xmlns:svg="http://www.w3.org/2000/svg"><sodipodi:namedview
     id="namedview1"
     pagecolor="#ffffff"
     bordercolor="#000000"
     borderopacity="0.25"
     inkscape:showpageshadow="2"
     inkscape:pageopacity="0.0"
     inkscape:pagecheckerboard="0"
     inkscape:deskcolor="#d1d1d1"
     inkscape:document-units="mm"
     inkscape:zoom="2.30169"
     inkscape:cx="41.925716"
     inkscape:cy="50.18052"
     inkscape:window-width="1920"
     inkscape:window-height="991"
     inkscape:window-x="-9"
     inkscape:window-y="-9"
     inkscape:window-maximized="1"
     inkscape:current-layer="layer1" /><defs
     id="defs1" /><g
     inkscape:label="Layer 1"
     inkscape:groupmode="layer"
     id="layer1" /><g
     inkscape:groupmode="layer"
     id="layer9"
     inkscape:label="Breadboard"><g
       inkscape:groupmode="layer"
       id="layer10"
       inkscape:label="icon"><g
         id="g3"><rect
           style="fill:#2e35a3;fill-opacity:1;stroke:#808080;stroke-width:0.0201061"
           id="rect1"
           width="24.800386"
           height="34.980503"
           x="0.10835213"
           y="0.10835213" /><text
           xml:space="preserve"
           style="font-style:normal;font-variant:normal;font-weight:normal;font-stretch:normal;font-size:1.41111px;font-family:'OCR A Extended';-inkscape-font-specification:'OCR A Extended, Normal';font-variant-ligatures:normal;font-variant-caps:normal;font-variant-numeric:normal;font-variant-east-asian:normal;fill:#ffffff;fill-opacity:1;stroke:#808080;stroke-width:0.02"
           x="6.9672408"
           y="3.9945507"
           id="text6"><tspan
             sodipodi:role="line"
             id="tspan6"
             style="font-style:normal;font-variant:normal;font-weight:normal;font-stretch:normal;font-size:1.41111px;font-family:'OCR A Extended';-inkscape-font-specification:'OCR A Extended, Normal';font-variant-ligatures:normal;font-variant-caps:normal;font-variant-numeric:normal;font-variant-east-asian:normal;fill:#ffffff;fill-opacity:1;stroke-width:0.02"
             x="6.9672408"
             y="3.9945507">VCC</tspan></text><text
           xml:space="preserve"
           style="font-style:normal;font-variant:normal;font-weight:normal;font-stretch:normal;font-size:1.41111px;font-family:'OCR A Extended';-inkscape-font-specification:'OCR A Extended, Normal';font-variant-ligatures:normal;font-variant-caps:normal;font-variant-numeric:normal;font-variant-east-asian:normal;fill:#ffffff;fill-opacity:1;stroke:#808080;stroke-width:0.02"
           x="10.172171"
           y="3.9016542"
           id="text7"><tspan
             sodipodi:role="line"
             id="tspan7"
             style="font-style:normal;font-variant:normal;font-weight:normal;font-stretch:normal;font-size:1.41111px;font-family:'OCR A Extended';-inkscape-font-specification:'OCR A Extended, Normal';font-variant-ligatures:normal;font-variant-caps:normal;font-variant-numeric:normal;font-variant-east-asian:normal;fill:#ffffff;fill-opacity:1;stroke-width:0.02"
             x="10.172171"
             y="3.9016542">RX</tspan></text><text
           xml:space="preserve"
           style="font-style:normal;font-variant:normal;font-weight:normal;font-stretch:normal;font-size:1.41111px;font-family:'OCR A Extended';-inkscape-font-specification:'OCR A Extended, Normal';font-variant-ligatures:normal;font-variant-caps:normal;font-variant-numeric:normal;font-variant-east-asian:normal;fill:#ffffff;fill-opacity:1;stroke:#808080;stroke-width:0.02"
           x="12.494585"
           y="3.9016542"
           id="text8"><tspan
             sodipodi:role="line"
             id="tspan8"
             style="font-style:normal;font-variant:normal;font-weight:normal;font-stretch:normal;font-size:1.41111px;font-family:'OCR A Extended';-inkscape-font-specification:'OCR A Extended, Normal';font-variant-ligatures:normal;font-variant-caps:normal;font-variant-numeric:normal;font-variant-east-asian:normal;fill:#ffffff;fill-opacity:1;stroke-width:0.02"
             x="12.494585"
             y="3.9016542">TX</tspan></text><text
           xml:space="preserve"
           style="font-style:normal;font-variant:normal;font-weight:normal;font-stretch:normal;font-size:1.41111px;font-family:'OCR A Extended';-inkscape-font-specification:'OCR A Extended, Normal';font-variant-ligatures:normal;font-variant-caps:normal;font-variant-numeric:normal;font-variant-east-asian:normal;fill:#ffffff;fill-opacity:1;stroke:#808080;stroke-width:0.02"
           x="14.956343"
           y="3.855206"
           id="text9"><tspan
             sodipodi:role="line"
             id="tspan9"
             style="font-style:normal;font-variant:normal;font-weight:normal;font-stretch:normal;font-size:1.41111px;font-family:'OCR A Extended';-inkscape-font-specification:'OCR A Extended, Normal';font-variant-ligatures:normal;font-variant-caps:normal;font-variant-numeric:normal;font-variant-east-asian:normal;fill:#ffffff;fill-opacity:1;stroke-width:0.02"
             x="14.956343"
             y="3.855206">GND</tspan></text><rect
           style="fill:#ffffff;fill-opacity:1;stroke:#808080;stroke-width:0.02"
           id="rect9"
           width="14.713826"
           height="11.03537"
           x="4.483119"
           y="13.909163" /></g><g
         inkscape:groupmode="layer"
         id="layer11"
         inkscape:label="copper1"><path
           d="m 8.4210691,0.51673101 a 1.1000992,1.1000992 0 0 0 -0.1566034,0.0111994 1.1000992,1.1000992 0 0 0 -0.153279,0.0334182 1.1000992,1.1000992 0 0 0 -0.1471547,0.0547668 1.1000992,1.1000992 0 0 0 -0.137706,0.0752396 1.1000992,1.1000992 0 0 0 -0.1256328,0.094137 1.1000992,1.1000992 0 0 0 -0.1111097,0.11093436 1.1000992,1.1000992 0 0 0 -0.093962,0.12563283 1.1000992,1.1000992 0 0 0 -0.07524,0.1377062 1.1000992,1.1000992 0 0 0 -0.054943,0.1471549 1.1000992,1.1000992 0 0 0 -0.033246,0.1532791 1.1000992,1.1000992 0 0 0 -0.011198,0.1566029 1.1000992,1.1000992 0 0 0 0.011198,0.1566037 1.1000992,1.1000992 0 0 0 0.033246,0.153279 1.1000992,1.1000992 0 0 0 0.054943,0.147155 1.1000992,1.1000992 0 0 0 0.07524,0.1377061 1.1000992,1.1000992 0 0 0 0.093962,0.1256328 1.1000992,1.1000992 0 0 0 0.1111097,0.1111096 1.1000992,1.1000992 0 0 0 0.1256328,0.093962 1.1000992,1.1000992 0 0 0 0.137706,0.07524 1.1000992,1.1000992 0 0 0 0.1471547,0.054941 1.1000992,1.1000992 0 0 0 0.153279,0.03325 1.1000992,1.1000992 0 0 0 0.1566034,0.0112 1.1000992,1.1000992 0 0 0 0.1566035,-0.0112 1.1000992,1.1000992 0 0 0 0.1532789,-0.03325 1.1000992,1.1000992 0 0 0 0.1471548,-0.054941 1.1000992,1.1000992 0 0 0 0.1377061,-0.07524 1.1000992,1.1000992 0 0 0 0.1256325,-0.093962 1.1000992,1.1000992 0 0 0 0.110935,-0.1111096 1.1000992,1.1000992 0 0 0 0.094137,-0.1256328 1.1000992,1.1000992 0 0 0 0.07524,-0.1377061 1.1000992,1.1000992 0 0 0 0.054767,-0.147155 1.1000992,1.1000992 0 0 0 0.033418,-0.153279 1.1000992,1.1000992 0 0 0 0.0112,-0.1566036 1.1000992,1.1000992 0 0 0 -0.00138,-0.053891 1.1000992,1.1000992 0 0 0 -0.00384,-0.05389 1.1000992,1.1000992 0 0 0 -0.00665,-0.053542 1.1000992,1.1000992 0 0 0 -0.00927,-0.053368 1.1000992,1.1000992 0 0 0 -0.011722,-0.052666 1.1000992,1.1000992 0 0 0 -0.014525,-0.05197 1.1000992,1.1000992 0 0 0 -0.016973,-0.051268 1.1000992,1.1000992 0 0 0 -0.019422,-0.050391 1.1000992,1.1000992 0 0 0 -0.021874,-0.049341 1.1000992,1.1000992 0 0 0 -0.024145,-0.048291 1.1000992,1.1000992 0 0 0 -0.026597,-0.046893 1.1000992,1.1000992 0 0 0 -0.029045,-0.045668 1.1000992,1.1000992 0 0 0 -0.030971,-0.0440955 1.1000992,1.1000992 0 0 0 -0.033244,-0.042517 1.1000992,1.1000992 0 0 0 -0.035345,-0.0409445 1.1000992,1.1000992 0 0 0 -0.037095,-0.039192 1.1000992,1.1000992 0 0 0 -0.039195,-0.0370973 1.1000992,1.1000992 0 0 0 -0.040944,-0.0353448 1.1000992,1.1000992 0 0 0 -0.042519,-0.0332442 1.1000992,1.1000992 0 0 0 -0.044094,-0.0311435 1.1000992,1.1000992 0 0 0 -0.045668,-0.0288748 1.1000992,1.1000992 0 0 0 -0.046893,-0.0265941 1.1000992,1.1000992 0 0 0 -0.048293,-0.0241454 1.1000992,1.1000992 0 0 0 -0.049343,-0.0220448 1.1000992,1.1000992 0 0 0 -0.050394,-0.019422 1.1000992,1.1000992 0 0 0 -0.051268,-0.0167991 1.1000992,1.1000992 0 0 0 -0.051968,-0.0145245 1.1000992,1.1000992 0 0 0 -0.052843,-0.0117216 1.1000992,1.1000992 0 0 0 -0.053192,-0.009273 1.1000992,1.1000992 0 0 0 -0.053542,-0.00665 1.1000992,1.1000992 0 0 0 -0.053893,-0.004021 1.1000992,1.1000992 0 0 0 -0.053893,-0.001201 z m 0,0.47313444 a 0.62338953,0.62338953 0 0 1 0.040769,0.001381 0.62338953,0.62338953 0 0 1 0.040595,0.003841 0.62338953,0.62338953 0 0 1 0.040245,0.00665 0.62338953,0.62338953 0 0 1 0.039719,0.00927 0.62338953,0.62338953 0 0 1 0.03902,0.011896 0.62338953,0.62338953 0 0 1 0.038145,0.014344 0.62338953,0.62338953 0 0 1 0.037269,0.016799 0.62338953,0.62338953 0 0 1 0.03587,0.019248 0.62338953,0.62338953 0 0 1 0.034645,0.021522 0.62338953,0.62338953 0 0 1 0.033246,0.023797 0.62338953,0.62338953 0 0 1 0.031496,0.025898 0.62338953,0.62338953 0 0 1 0.029746,0.027824 0.62338953,0.62338953 0 0 1 0.027821,0.029919 0.62338953,0.62338953 0 0 1 0.025896,0.031498 0.62338953,0.62338953 0 0 1 0.023796,0.03307 0.62338953,0.62338953 0 0 1 0.021522,0.034643 0.62338953,0.62338953 0 0 1 0.019247,0.036047 0.62338953,0.62338953 0 0 1 0.016797,0.037097 0.62338953,0.62338953 0 0 1 0.014522,0.038322 0.62338953,0.62338953 0 0 1 0.011723,0.039018 0.62338953,0.62338953 0 0 1 0.00927,0.03972 0.62338953,0.62338953 0 0 1 0.00665,0.040242 0.62338953,0.62338953 0 0 1 0.00403,0.040596 0.62338953,0.62338953 0 0 1 0.0014,0.04077 0.62338953,0.62338953 0 0 1 -0.012073,0.1216088 0.62338953,0.62338953 0 0 1 -0.035517,0.1168933 0.62338953,0.62338953 0 0 1 -0.057567,0.1077852 0.62338953,0.62338953 0 0 1 -0.077514,0.094487 0.62338953,0.62338953 0 0 1 -0.094487,0.077514 0.62338953,0.62338953 0 0 1 -0.1077851,0.05757 0.62338953,0.62338953 0 0 1 -0.1168867,0.03552 A 0.62338953,0.62338953 0 0 1 8.4210701,2.2365545 0.62338953,0.62338953 0 0 1 8.2994618,2.2246588 0.62338953,0.62338953 0 0 1 8.1824029,2.18914 0.62338953,0.62338953 0 0 1 8.0747927,2.1315704 0.62338953,0.62338953 0 0 1 7.9803057,2.054056 0.62338953,0.62338953 0 0 1 7.9027913,1.9595691 0.62338953,0.62338953 0 0 1 7.8450495,1.8517839 0.62338953,0.62338953 0 0 1 7.809704,1.7348999 0.62338953,0.62338953 0 0 1 7.7976307,1.6132919 0.62338953,0.62338953 0 0 1 7.809704,1.4916833 a 0.62338953,0.62338953 0 0 1 0.035346,-0.1170587 0.62338953,0.62338953 0 0 1 0.057742,-0.1077852 0.62338953,0.62338953 0 0 1 0.077514,-0.094487 0.62338953,0.62338953 0 0 1 0.094487,-0.077514 0.62338953,0.62338953 0 0 1 0.1076102,-0.05757 0.62338953,0.62338953 0 0 1 0.1170589,-0.035519 0.62338953,0.62338953 0 0 1 0.1216083,-0.0118957 z"
           style="fill:#9a916c;fill-opacity:1;stroke:#808080;stroke-width:0.00677199"
           id="path3" /><path
           d="m 11.06862,0.51673101 a 1.1000992,1.1000992 0 0 0 -0.156603,0.0111994 1.1000992,1.1000992 0 0 0 -0.153279,0.0334182 1.1000992,1.1000992 0 0 0 -0.147155,0.0547668 1.1000992,1.1000992 0 0 0 -0.137706,0.0752396 1.1000992,1.1000992 0 0 0 -0.125632,0.094137 1.1000992,1.1000992 0 0 0 -0.11111,0.11093436 1.1000992,1.1000992 0 0 0 -0.09396,0.12563283 1.1000992,1.1000992 0 0 0 -0.07524,0.1377062 1.1000992,1.1000992 0 0 0 -0.05494,0.1471549 1.1000992,1.1000992 0 0 0 -0.033246,0.1532791 1.1000992,1.1000992 0 0 0 -0.011198,0.1566029 1.1000992,1.1000992 0 0 0 0.011198,0.1566037 1.1000992,1.1000992 0 0 0 0.033246,0.153279 1.1000992,1.1000992 0 0 0 0.05494,0.147155 1.1000992,1.1000992 0 0 0 0.07524,0.1377061 1.1000992,1.1000992 0 0 0 0.09396,0.1256328 1.1000992,1.1000992 0 0 0 0.11111,0.1111096 1.1000992,1.1000992 0 0 0 0.125632,0.093962 1.1000992,1.1000992 0 0 0 0.137706,0.07524 1.1000992,1.1000992 0 0 0 0.147155,0.054941 1.1000992,1.1000992 0 0 0 0.153279,0.03325 1.1000992,1.1000992 0 0 0 0.156603,0.0112 1.1000992,1.1000992 0 0 0 0.156604,-0.0112 1.1000992,1.1000992 0 0 0 0.153279,-0.03325 1.1000992,1.1000992 0 0 0 0.147155,-0.054941 1.1000992,1.1000992 0 0 0 0.137706,-0.07524 1.1000992,1.1000992 0 0 0 0.125632,-0.093962 1.1000992,1.1000992 0 0 0 0.110935,-0.1111096 1.1000992,1.1000992 0 0 0 0.09414,-0.1256328 1.1000992,1.1000992 0 0 0 0.07524,-0.1377061 1.1000992,1.1000992 0 0 0 0.05477,-0.147155 1.1000992,1.1000992 0 0 0 0.03342,-0.153279 1.1000992,1.1000992 0 0 0 0.0112,-0.1566036 1.1000992,1.1000992 0 0 0 -0.0014,-0.053891 1.1000992,1.1000992 0 0 0 -0.0038,-0.05389 1.1000992,1.1000992 0 0 0 -0.0067,-0.053542 1.1000992,1.1000992 0 0 0 -0.0093,-0.053368 1.1000992,1.1000992 0 0 0 -0.01172,-0.052666 1.1000992,1.1000992 0 0 0 -0.01452,-0.05197 1.1000992,1.1000992 0 0 0 -0.01697,-0.051268 1.1000992,1.1000992 0 0 0 -0.01942,-0.050391 1.1000992,1.1000992 0 0 0 -0.02187,-0.049341 1.1000992,1.1000992 0 0 0 -0.02414,-0.048291 1.1000992,1.1000992 0 0 0 -0.0266,-0.046893 1.1000992,1.1000992 0 0 0 -0.02904,-0.045668 1.1000992,1.1000992 0 0 0 -0.03097,-0.0440955 1.1000992,1.1000992 0 0 0 -0.03324,-0.042517 1.1000992,1.1000992 0 0 0 -0.03534,-0.0409445 1.1000992,1.1000992 0 0 0 -0.03709,-0.039192 1.1000992,1.1000992 0 0 0 -0.0392,-0.0370973 1.1000992,1.1000992 0 0 0 -0.04094,-0.0353448 1.1000992,1.1000992 0 0 0 -0.04252,-0.0332442 1.1000992,1.1000992 0 0 0 -0.04409,-0.0311435 1.1000992,1.1000992 0 0 0 -0.04567,-0.0288748 1.1000992,1.1000992 0 0 0 -0.04689,-0.0265941 1.1000992,1.1000992 0 0 0 -0.04829,-0.0241454 1.1000992,1.1000992 0 0 0 -0.04934,-0.0220448 1.1000992,1.1000992 0 0 0 -0.05039,-0.019422 1.1000992,1.1000992 0 0 0 -0.05127,-0.0167991 1.1000992,1.1000992 0 0 0 -0.05197,-0.0145245 1.1000992,1.1000992 0 0 0 -0.05284,-0.0117216 1.1000992,1.1000992 0 0 0 -0.05319,-0.009273 1.1000992,1.1000992 0 0 0 -0.05354,-0.00665 1.1000992,1.1000992 0 0 0 -0.05389,-0.004021 1.1000992,1.1000992 0 0 0 -0.05389,-0.001201 z m 0,0.47313444 a 0.62338953,0.62338953 0 0 1 0.04077,0.001381 0.62338953,0.62338953 0 0 1 0.04059,0.003841 0.62338953,0.62338953 0 0 1 0.04025,0.00665 0.62338953,0.62338953 0 0 1 0.03972,0.00927 0.62338953,0.62338953 0 0 1 0.03902,0.011896 0.62338953,0.62338953 0 0 1 0.03815,0.014344 0.62338953,0.62338953 0 0 1 0.03727,0.016799 0.62338953,0.62338953 0 0 1 0.03587,0.019248 0.62338953,0.62338953 0 0 1 0.03464,0.021522 0.62338953,0.62338953 0 0 1 0.03325,0.023797 0.62338953,0.62338953 0 0 1 0.0315,0.025898 0.62338953,0.62338953 0 0 1 0.02975,0.027824 0.62338953,0.62338953 0 0 1 0.02782,0.029919 0.62338953,0.62338953 0 0 1 0.0259,0.031498 0.62338953,0.62338953 0 0 1 0.0238,0.03307 0.62338953,0.62338953 0 0 1 0.02152,0.034643 0.62338953,0.62338953 0 0 1 0.01925,0.036047 0.62338953,0.62338953 0 0 1 0.0168,0.037097 0.62338953,0.62338953 0 0 1 0.01452,0.038322 0.62338953,0.62338953 0 0 1 0.01172,0.039018 0.62338953,0.62338953 0 0 1 0.0093,0.03972 0.62338953,0.62338953 0 0 1 0.0067,0.040242 0.62338953,0.62338953 0 0 1 0.004,0.040596 0.62338953,0.62338953 0 0 1 0.0014,0.04077 0.62338953,0.62338953 0 0 1 -0.01207,0.1216088 0.62338953,0.62338953 0 0 1 -0.03552,0.1168933 0.62338953,0.62338953 0 0 1 -0.05757,0.1077852 0.62338953,0.62338953 0 0 1 -0.07751,0.094487 0.62338953,0.62338953 0 0 1 -0.09449,0.077514 0.62338953,0.62338953 0 0 1 -0.107785,0.05757 0.62338953,0.62338953 0 0 1 -0.116886,0.03552 0.62338953,0.62338953 0 0 1 -0.121609,0.011899 0.62338953,0.62338953 0 0 1 -0.121608,-0.011896 0.62338953,0.62338953 0 0 1 -0.117059,-0.035519 0.62338953,0.62338953 0 0 1 -0.10761,-0.05757 0.62338953,0.62338953 0 0 1 -0.09449,-0.077514 0.62338953,0.62338953 0 0 1 -0.07751,-0.094487 0.62338953,0.62338953 0 0 1 -0.05774,-0.1077852 0.62338953,0.62338953 0 0 1 -0.03535,-0.116884 0.62338953,0.62338953 0 0 1 -0.01207,-0.121608 0.62338953,0.62338953 0 0 1 0.01207,-0.1216086 0.62338953,0.62338953 0 0 1 0.03535,-0.1170587 0.62338953,0.62338953 0 0 1 0.05774,-0.1077852 0.62338953,0.62338953 0 0 1 0.07751,-0.094487 0.62338953,0.62338953 0 0 1 0.09449,-0.077514 0.62338953,0.62338953 0 0 1 0.107611,-0.05757 0.62338953,0.62338953 0 0 1 0.117058,-0.035519 0.62338953,0.62338953 0 0 1 0.121609,-0.0118957 z"
           style="fill:#9a916c;fill-opacity:1;stroke:#808080;stroke-width:0.00677199"
           id="path4" /><path
           d="m 13.437482,0.47028274 a 1.1000992,1.1000992 0 0 0 -0.156603,0.0111994 1.1000992,1.1000992 0 0 0 -0.153279,0.0334182 1.1000992,1.1000992 0 0 0 -0.147155,0.0547668 1.1000992,1.1000992 0 0 0 -0.137706,0.0752396 1.1000992,1.1000992 0 0 0 -0.125633,0.094137 1.1000992,1.1000992 0 0 0 -0.111109,0.11093436 1.1000992,1.1000992 0 0 0 -0.09396,0.12563283 1.1000992,1.1000992 0 0 0 -0.07524,0.13770617 1.1000992,1.1000992 0 0 0 -0.05494,0.1471549 1.1000992,1.1000992 0 0 0 -0.03325,0.1532791 1.1000992,1.1000992 0 0 0 -0.0112,0.1566029 1.1000992,1.1000992 0 0 0 0.0112,0.1566037 1.1000992,1.1000992 0 0 0 0.03325,0.153279 1.1000992,1.1000992 0 0 0 0.05494,0.147155 1.1000992,1.1000992 0 0 0 0.07524,0.1377061 1.1000992,1.1000992 0 0 0 0.09396,0.1256328 1.1000992,1.1000992 0 0 0 0.111109,0.1111096 1.1000992,1.1000992 0 0 0 0.125633,0.093962 1.1000992,1.1000992 0 0 0 0.137706,0.07524 1.1000992,1.1000992 0 0 0 0.147155,0.054941 1.1000992,1.1000992 0 0 0 0.153279,0.03325 1.1000992,1.1000992 0 0 0 0.156603,0.0112 1.1000992,1.1000992 0 0 0 0.156604,-0.0112 1.1000992,1.1000992 0 0 0 0.153279,-0.03325 1.1000992,1.1000992 0 0 0 0.147154,-0.054941 1.1000992,1.1000992 0 0 0 0.137706,-0.07524 1.1000992,1.1000992 0 0 0 0.125633,-0.093962 1.1000992,1.1000992 0 0 0 0.110935,-0.1111096 1.1000992,1.1000992 0 0 0 0.09414,-0.1256328 1.1000992,1.1000992 0 0 0 0.07524,-0.1377061 1.1000992,1.1000992 0 0 0 0.05477,-0.147155 1.1000992,1.1000992 0 0 0 0.03342,-0.153279 1.1000992,1.1000992 0 0 0 0.0112,-0.1566036 1.1000992,1.1000992 0 0 0 -0.0014,-0.053891 1.1000992,1.1000992 0 0 0 -0.0038,-0.05389 1.1000992,1.1000992 0 0 0 -0.0067,-0.053542 1.1000992,1.1000992 0 0 0 -0.0093,-0.053368 1.1000992,1.1000992 0 0 0 -0.01172,-0.052666 1.1000992,1.1000992 0 0 0 -0.01452,-0.05197 1.1000992,1.1000992 0 0 0 -0.01697,-0.051268 1.1000992,1.1000992 0 0 0 -0.01942,-0.050391 1.1000992,1.1000992 0 0 0 -0.02187,-0.049341 1.1000992,1.1000992 0 0 0 -0.02414,-0.048291 1.1000992,1.1000992 0 0 0 -0.0266,-0.046893 1.1000992,1.1000992 0 0 0 -0.02904,-0.045668 1.1000992,1.1000992 0 0 0 -0.03097,-0.0440955 1.1000992,1.1000992 0 0 0 -0.03324,-0.042517 1.1000992,1.1000992 0 0 0 -0.03534,-0.0409445 1.1000992,1.1000992 0 0 0 -0.03709,-0.039192 1.1000992,1.1000992 0 0 0 -0.0392,-0.0370973 1.1000992,1.1000992 0 0 0 -0.04094,-0.0353448 1.1000992,1.1000992 0 0 0 -0.04252,-0.0332442 1.1000992,1.1000992 0 0 0 -0.04409,-0.0311435 1.1000992,1.1000992 0 0 0 -0.04567,-0.0288748 1.1000992,1.1000992 0 0 0 -0.04689,-0.0265941 1.1000992,1.1000992 0 0 0 -0.04829,-0.0241454 1.1000992,1.1000992 0 0 0 -0.04934,-0.0220448 1.1000992,1.1000992 0 0 0 -0.05039,-0.019422 1.1000992,1.1000992 0 0 0 -0.05127,-0.0167991 1.1000992,1.1000992 0 0 0 -0.05197,-0.0145245 1.1000992,1.1000992 0 0 0 -0.05284,-0.0117216 1.1000992,1.1000992 0 0 0 -0.05319,-0.009273 1.1000992,1.1000992 0 0 0 -0.05354,-0.00665 1.1000992,1.1000992 0 0 0 -0.05389,-0.004021 1.1000992,1.1000992 0 0 0 -0.05389,-0.001201 z m 0,0.47313444 a 0.62338953,0.62338953 0 0 1 0.04077,0.001381 0.62338953,0.62338953 0 0 1 0.04059,0.003841 0.62338953,0.62338953 0 0 1 0.04025,0.00665 0.62338953,0.62338953 0 0 1 0.03972,0.00927 0.62338953,0.62338953 0 0 1 0.03902,0.011896 0.62338953,0.62338953 0 0 1 0.03815,0.014344 0.62338953,0.62338953 0 0 1 0.03727,0.016799 0.62338953,0.62338953 0 0 1 0.03587,0.019248 0.62338953,0.62338953 0 0 1 0.03464,0.021522 0.62338953,0.62338953 0 0 1 0.03325,0.023797 0.62338953,0.62338953 0 0 1 0.0315,0.025898 0.62338953,0.62338953 0 0 1 0.02975,0.027824 0.62338953,0.62338953 0 0 1 0.02782,0.029919 0.62338953,0.62338953 0 0 1 0.0259,0.031498 0.62338953,0.62338953 0 0 1 0.0238,0.03307 0.62338953,0.62338953 0 0 1 0.02152,0.034643 0.62338953,0.62338953 0 0 1 0.01925,0.036047 0.62338953,0.62338953 0 0 1 0.0168,0.037097 0.62338953,0.62338953 0 0 1 0.01452,0.038322 0.62338953,0.62338953 0 0 1 0.01172,0.039018 0.62338953,0.62338953 0 0 1 0.0093,0.03972 0.62338953,0.62338953 0 0 1 0.0067,0.040242 0.62338953,0.62338953 0 0 1 0.004,0.040596 0.62338953,0.62338953 0 0 1 0.0014,0.04077 0.62338953,0.62338953 0 0 1 -0.01207,0.1216088 0.62338953,0.62338953 0 0 1 -0.03552,0.1168933 0.62338953,0.62338953 0 0 1 -0.05757,0.1077852 0.62338953,0.62338953 0 0 1 -0.07751,0.094487 0.62338953,0.62338953 0 0 1 -0.09449,0.077514 0.62338953,0.62338953 0 0 1 -0.107785,0.05757 0.62338953,0.62338953 0 0 1 -0.116887,0.03552 0.62338953,0.62338953 0 0 1 -0.121608,0.011899 0.62338953,0.62338953 0 0 1 -0.121608,-0.011896 0.62338953,0.62338953 0 0 1 -0.117059,-0.035519 0.62338953,0.62338953 0 0 1 -0.10761,-0.05757 0.62338953,0.62338953 0 0 1 -0.09449,-0.077514 0.62338953,0.62338953 0 0 1 -0.07752,-0.094487 0.62338953,0.62338953 0 0 1 -0.05774,-0.1077852 0.62338953,0.62338953 0 0 1 -0.03535,-0.116884 0.62338953,0.62338953 0 0 1 -0.01207,-0.121608 0.62338953,0.62338953 0 0 1 0.01207,-0.1216086 0.62338953,0.62338953 0 0 1 0.03535,-0.1170587 0.62338953,0.62338953 0 0 1 0.05774,-0.1077852 0.62338953,0.62338953 0 0 1 0.07751,-0.094487 0.62338953,0.62338953 0 0 1 0.09449,-0.077514 0.62338953,0.62338953 0 0 1 0.10761,-0.05757 0.62338953,0.62338953 0 0 1 0.117059,-0.035519 0.62338953,0.62338953 0 0 1 0.121608,-0.0118957 z"
           style="fill:#9a916c;fill-opacity:1;stroke:#808080;stroke-width:0.00677199"
           id="path5" /><path
           d="m 16.085033,0.47028274 a 1.1000992,1.1000992 0 0 0 -0.156603,0.0111994 1.1000992,1.1000992 0 0 0 -0.153279,0.0334182 1.1000992,1.1000992 0 0 0 -0.147155,0.0547668 1.1000992,1.1000992 0 0 0 -0.137706,0.0752396 1.1000992,1.1000992 0 0 0 -0.125632,0.094137 1.1000992,1.1000992 0 0 0 -0.11111,0.11093436 1.1000992,1.1000992 0 0 0 -0.09396,0.12563283 1.1000992,1.1000992 0 0 0 -0.07524,0.13770617 1.1000992,1.1000992 0 0 0 -0.05494,0.1471549 1.1000992,1.1000992 0 0 0 -0.03325,0.1532791 1.1000992,1.1000992 0 0 0 -0.0112,0.1566029 1.1000992,1.1000992 0 0 0 0.0112,0.1566037 1.1000992,1.1000992 0 0 0 0.03325,0.153279 1.1000992,1.1000992 0 0 0 0.05494,0.147155 1.1000992,1.1000992 0 0 0 0.07524,0.1377061 1.1000992,1.1000992 0 0 0 0.09396,0.1256328 1.1000992,1.1000992 0 0 0 0.11111,0.1111096 1.1000992,1.1000992 0 0 0 0.125632,0.093962 1.1000992,1.1000992 0 0 0 0.137706,0.07524 1.1000992,1.1000992 0 0 0 0.147155,0.054941 1.1000992,1.1000992 0 0 0 0.153279,0.03325 1.1000992,1.1000992 0 0 0 0.156603,0.0112 1.1000992,1.1000992 0 0 0 0.156604,-0.0112 1.1000992,1.1000992 0 0 0 0.153279,-0.03325 1.1000992,1.1000992 0 0 0 0.147155,-0.054941 1.1000992,1.1000992 0 0 0 0.137706,-0.07524 1.1000992,1.1000992 0 0 0 0.125632,-0.093962 1.1000992,1.1000992 0 0 0 0.110935,-0.1111096 1.1000992,1.1000992 0 0 0 0.09414,-0.1256328 1.1000992,1.1000992 0 0 0 0.07524,-0.1377061 1.1000992,1.1000992 0 0 0 0.05477,-0.147155 1.1000992,1.1000992 0 0 0 0.03342,-0.153279 1.1000992,1.1000992 0 0 0 0.0112,-0.1566036 1.1000992,1.1000992 0 0 0 -0.0014,-0.053891 1.1000992,1.1000992 0 0 0 -0.0038,-0.05389 1.1000992,1.1000992 0 0 0 -0.0067,-0.053542 1.1000992,1.1000992 0 0 0 -0.0093,-0.053368 1.1000992,1.1000992 0 0 0 -0.01172,-0.052666 1.1000992,1.1000992 0 0 0 -0.01452,-0.05197 1.1000992,1.1000992 0 0 0 -0.01697,-0.051268 1.1000992,1.1000992 0 0 0 -0.01942,-0.050391 1.1000992,1.1000992 0 0 0 -0.02187,-0.049341 1.1000992,1.1000992 0 0 0 -0.02414,-0.048291 1.1000992,1.1000992 0 0 0 -0.0266,-0.046893 1.1000992,1.1000992 0 0 0 -0.02904,-0.045668 1.1000992,1.1000992 0 0 0 -0.03097,-0.0440955 1.1000992,1.1000992 0 0 0 -0.03324,-0.042517 1.1000992,1.1000992 0 0 0 -0.03534,-0.0409445 1.1000992,1.1000992 0 0 0 -0.03709,-0.039192 1.1000992,1.1000992 0 0 0 -0.0392,-0.0370973 1.1000992,1.1000992 0 0 0 -0.04094,-0.0353448 1.1000992,1.1000992 0 0 0 -0.04252,-0.0332442 1.1000992,1.1000992 0 0 0 -0.04409,-0.0311435 1.1000992,1.1000992 0 0 0 -0.04567,-0.0288748 1.1000992,1.1000992 0 0 0 -0.04689,-0.0265941 1.1000992,1.1000992 0 0 0 -0.04829,-0.0241454 1.1000992,1.1000992 0 0 0 -0.04934,-0.0220448 1.1000992,1.1000992 0 0 0 -0.05039,-0.019422 1.1000992,1.1000992 0 0 0 -0.05127,-0.0167991 1.1000992,1.1000992 0 0 0 -0.05197,-0.0145245 1.1000992,1.1000992 0 0 0 -0.05284,-0.0117216 1.1000992,1.1000992 0 0 0 -0.05319,-0.009273 1.1000992,1.1000992 0 0 0 -0.05354,-0.00665 1.1000992,1.1000992 0 0 0 -0.05389,-0.004021 1.1000992,1.1000992 0 0 0 -0.05389,-0.001201 z m 0,0.47313444 a 0.62338953,0.62338953 0 0 1 0.04077,0.001381 0.62338953,0.62338953 0 0 1 0.04059,0.003841 0.62338953,0.62338953 0 0 1 0.04025,0.00665 0.62338953,0.62338953 0 0 1 0.03972,0.00927 0.62338953,0.62338953 0 0 1 0.03902,0.011896 0.62338953,0.62338953 0 0 1 0.03815,0.014344 0.62338953,0.62338953 0 0 1 0.03727,0.016799 0.62338953,0.62338953 0 0 1 0.03587,0.019248 0.62338953,0.62338953 0 0 1 0.03464,0.021522 0.62338953,0.62338953 0 0 1 0.03325,0.023797 0.62338953,0.62338953 0 0 1 0.0315,0.025898 0.62338953,0.62338953 0 0 1 0.02975,0.027824 0.62338953,0.62338953 0 0 1 0.02782,0.029919 0.62338953,0.62338953 0 0 1 0.0259,0.031498 0.62338953,0.62338953 0 0 1 0.0238,0.03307 0.62338953,0.62338953 0 0 1 0.02152,0.034643 0.62338953,0.62338953 0 0 1 0.01925,0.036047 0.62338953,0.62338953 0 0 1 0.0168,0.037097 0.62338953,0.62338953 0 0 1 0.01452,0.038322 0.62338953,0.62338953 0 0 1 0.01172,0.039018 0.62338953,0.62338953 0 0 1 0.0093,0.03972 0.62338953,0.62338953 0 0 1 0.0067,0.040242 0.62338953,0.62338953 0 0 1 0.004,0.040596 0.62338953,0.62338953 0 0 1 0.0014,0.04077 0.62338953,0.62338953 0 0 1 -0.01207,0.1216088 0.62338953,0.62338953 0 0 1 -0.03552,0.1168933 0.62338953,0.62338953 0 0 1 -0.05757,0.1077852 0.62338953,0.62338953 0 0 1 -0.07751,0.094487 0.62338953,0.62338953 0 0 1 -0.09449,0.077514 0.62338953,0.62338953 0 0 1 -0.107785,0.05757 0.62338953,0.62338953 0 0 1 -0.116886,0.03552 0.62338953,0.62338953 0 0 1 -0.121609,0.011899 0.62338953,0.62338953 0 0 1 -0.121608,-0.011896 0.62338953,0.62338953 0 0 1 -0.117059,-0.035519 0.62338953,0.62338953 0 0 1 -0.10761,-0.05757 0.62338953,0.62338953 0 0 1 -0.09449,-0.077514 0.62338953,0.62338953 0 0 1 -0.07751,-0.094487 0.62338953,0.62338953 0 0 1 -0.05774,-0.1077852 0.62338953,0.62338953 0 0 1 -0.03535,-0.116884 0.62338953,0.62338953 0 0 1 -0.01207,-0.121608 0.62338953,0.62338953 0 0 1 0.01207,-0.1216086 0.62338953,0.62338953 0 0 1 0.03535,-0.1170587 0.62338953,0.62338953 0 0 1 0.05774,-0.1077852 0.62338953,0.62338953 0 0 1 0.07751,-0.094487 0.62338953,0.62338953 0 0 1 0.09449,-0.077514 0.62338953,0.62338953 0 0 1 0.107611,-0.05757 0.62338953,0.62338953 0 0 1 0.117058,-0.035519 0.62338953,0.62338953 0 0 1 0.121609,-0.0118957 z"
           style="fill:#9a916c;fill-opacity:1;stroke:#808080;stroke-width:0.00677199"
           id="path6" /></g></g></g></svg>
